<svg width="102" height="64" viewBox="0 0 102 64" fill="none" xmlns="http://www.w3.org/2000/svg">
<g id="Group">
<path id="Vector" d="M51.0001 63.5001C78.7937 63.5001 101.325 58.608 101.325 52.5733C101.325 46.5386 78.7937 41.6465 51.0001 41.6465C23.2065 41.6465 0.675293 46.5386 0.675293 52.5733C0.675293 58.608 23.2065 63.5001 51.0001 63.5001Z" fill="#F5F5F5"/>
<g id="Group_2">
<path id="Vector_2" d="M87.171 20.9791L71.2149 3.02474C70.449 1.80094 69.3308 1.06104 68.1529 1.06104H33.8472C32.6692 1.06104 31.5511 1.80094 30.7852 3.02318L14.8291 20.9806V35.4025H87.171V20.9791Z" stroke="#D9D9D9"/>
<path id="Vector_3" d="M66.1179 25.9287C66.1179 23.4234 67.6811 21.3551 69.6202 21.3535H87.171V49.6649C87.171 52.9789 85.0951 55.695 82.5317 55.695H19.4684C16.905 55.695 14.8291 52.9773 14.8291 49.6649V21.3535H32.3799C34.3189 21.3535 35.8822 23.4187 35.8822 25.9241V25.9584C35.8822 28.4638 37.4627 30.4868 39.4002 30.4868H62.5999C64.5374 30.4868 66.1179 28.445 66.1179 25.9397V25.9287Z" fill="#FAFAFA" stroke="#D9D9D9"/>
</g>
</g>
</svg>
