<svg width="18" height="21" viewBox="0 0 18 21" fill="none" xmlns="http://www.w3.org/2000/svg">
<path d="M0 4.5C0 3.43913 0.421427 2.42172 1.17157 1.67157C1.92172 0.921427 2.93913 0.5 4 0.5H18V20.5H4C2.93913 20.5 1.92172 20.0786 1.17157 19.3284C0.421427 18.5783 0 17.5609 0 16.5V4.5ZM2 13.035C2.60784 12.6834 3.29782 12.4989 4 12.5H16V2.5H4C3.46957 2.5 2.96086 2.71071 2.58579 3.08579C2.21071 3.46086 2 3.96957 2 4.5V13.035ZM16 14.5H4C3.46957 14.5 2.96086 14.7107 2.58579 15.0858C2.21071 15.4609 2 15.9696 2 16.5C2 17.0304 2.21071 17.5391 2.58579 17.9142C2.96086 18.2893 3.46957 18.5 4 18.5H16V14.5ZM7 4.5H14V6.5H7V4.5Z" fill="black"/>
</svg>
