<svg width="7" height="12" viewBox="0 0 7 12" fill="none" xmlns="http://www.w3.org/2000/svg">
<path d="M6.80446 2.13073V1.07389C6.80446 0.982289 6.69919 0.931703 6.6281 0.987758L0.464815 5.80162C0.412449 5.84235 0.370077 5.89449 0.340929 5.95408C0.311782 6.01367 0.296631 6.07914 0.296631 6.14547C0.296631 6.21181 0.311782 6.27727 0.340929 6.33686C0.370077 6.39645 0.412449 6.4486 0.464815 6.48932L6.6281 11.3032C6.70056 11.3592 6.80446 11.3087 6.80446 11.2171V10.1602C6.80446 10.0932 6.77302 10.029 6.72107 9.98795L1.79919 6.14616L6.72107 2.30299C6.77302 2.26198 6.80446 2.19772 6.80446 2.13073Z" fill="white"/>
</svg>
