<svg width="33" height="33" viewBox="0 0 33 33" fill="none" xmlns="http://www.w3.org/2000/svg">
<g clip-path="url(#clip0_95_7981)">
<path d="M25.4062 0.646484H8.40625C4.26411 0.646484 0.90625 4.00435 0.90625 8.14648V25.1465C0.90625 29.2886 4.26411 32.6465 8.40625 32.6465H25.4062C29.5484 32.6465 32.9062 29.2886 32.9062 25.1465V8.14648C32.9062 4.00435 29.5484 0.646484 25.4062 0.646484Z" fill="#F4F2ED"/>
<path d="M15.891 4.5357C16.5059 4.18375 17.3066 4.18218 17.9209 4.5357C21.0111 6.28183 24.1024 8.0253 27.1921 9.7725C27.7734 10.0998 28.162 10.7466 28.1561 11.4162V21.9219C28.1605 22.6193 27.7334 23.2815 27.1203 23.6014C24.0401 25.338 20.9615 27.0766 17.8819 28.8133C17.2545 29.172 16.4376 29.1444 15.8296 28.7561C14.9063 28.2209 13.9813 27.6881 13.0578 27.1534C12.869 27.0409 12.6563 26.9514 12.5231 26.7684C12.6408 26.6096 12.8515 26.5899 13.0226 26.5205C13.408 26.3979 13.7621 26.2011 14.1161 26.0103C14.2058 25.949 14.315 25.9725 14.4009 26.0273C15.1905 26.48 15.9733 26.946 16.7655 27.3944C16.9345 27.492 17.1056 27.3624 17.2501 27.2819C20.2726 25.5735 23.2989 23.8718 26.321 22.1629C26.433 22.109 26.4949 21.9901 26.4858 21.8675C26.4879 18.4019 26.4863 14.9358 26.4869 11.4701C26.4996 11.331 26.4191 11.203 26.2933 11.146C23.2239 9.41742 20.1559 7.68621 17.087 5.95717C16.9781 5.88231 16.8345 5.88212 16.7255 5.95661C13.6565 7.68621 10.5892 9.41905 7.5203 11.1475C7.3949 11.2046 7.31075 11.3305 7.32568 11.4701C7.3262 14.9358 7.32568 18.4019 7.32568 21.868C7.31478 21.9906 7.38138 22.107 7.49258 22.1598C8.31153 22.6241 9.13155 23.0853 9.95103 23.5481C10.4127 23.7965 10.9795 23.9443 11.4882 23.7539C11.937 23.5929 12.2517 23.1348 12.2431 22.6583C12.2474 19.2129 12.241 15.767 12.2463 12.3221C12.2351 12.1692 12.3802 12.0428 12.5289 12.0572C12.9224 12.0545 13.3164 12.0519 13.7099 12.0583C13.8741 12.0545 13.9871 12.2192 13.9669 12.3733C13.9653 15.8405 13.9711 19.3078 13.9643 22.7749C13.9653 23.699 13.5856 24.7045 12.7309 25.1566C11.678 25.702 10.3765 25.5864 9.33624 25.0634C8.43569 24.6139 7.57629 24.0834 6.69173 23.6019C6.07701 23.2838 5.652 22.6189 5.65633 21.922V11.4162C5.64988 10.7328 6.05406 10.0742 6.6533 9.75171C9.73291 8.01375 12.812 6.27441 15.891 4.5357Z" fill="#81CD39"/>
<path d="M18.5776 11.813C19.9207 11.7266 21.3586 11.7618 22.5672 12.4235C23.5031 12.9306 24.0218 13.9948 24.0383 15.0344C24.0122 15.1745 23.8656 15.2519 23.7317 15.2423C23.3421 15.2418 22.9522 15.2476 22.5626 15.2396C22.3972 15.246 22.3012 15.0936 22.2805 14.9475C22.1685 14.45 21.8971 13.9574 21.429 13.7174C20.7102 13.3576 19.877 13.3758 19.0931 13.3833C18.5211 13.4135 17.9058 13.4631 17.4211 13.7995C17.049 14.0544 16.936 14.5689 17.0687 14.9833C17.194 15.2808 17.5373 15.3768 17.8183 15.4653C19.4371 15.8886 21.1523 15.8464 22.74 16.4035C23.3975 16.6306 24.0405 17.0723 24.2655 17.7605C24.5598 18.683 24.4308 19.7855 23.7745 20.526C23.2422 21.1354 22.4671 21.4671 21.694 21.6473C20.6655 21.8766 19.5981 21.8825 18.5536 21.7806C17.5715 21.6686 16.5493 21.4106 15.7912 20.7415C15.1428 20.1785 14.8262 19.3013 14.8576 18.4548C14.8651 18.3118 15.0075 18.212 15.1445 18.2238C15.5368 18.2206 15.9293 18.2195 16.3217 18.2244C16.4785 18.2131 16.5947 18.3486 16.6027 18.4964C16.6751 18.9703 16.8532 19.4678 17.2665 19.7486C18.0641 20.2633 19.065 20.228 19.9782 20.2424C20.7347 20.2089 21.5841 20.1988 22.2016 19.6986C22.5273 19.4134 22.6238 18.9361 22.5358 18.5256C22.4405 18.179 22.0778 18.0175 21.7665 17.9119C20.1686 17.4065 18.4341 17.5899 16.8517 17.0183C16.2092 16.7913 15.588 16.362 15.3412 15.702C14.9968 14.7679 15.1546 13.6124 15.8797 12.8969C16.5867 12.1851 17.6072 11.911 18.5776 11.813V11.813Z" fill="#81CD39"/>
</g>
<defs>
<clipPath id="clip0_95_7981">
<rect width="32" height="32" fill="white" transform="translate(0.90625 0.646484)"/>
</clipPath>
</defs>
</svg>
