<svg width="16" height="22" viewBox="0 0 16 22" fill="none" xmlns="http://www.w3.org/2000/svg">
<path id="Vector" d="M15.2381 17.1091H14.6667V8.99545C14.6667 5.6283 12.1833 2.8458 8.95238 2.38284V1.45455C8.95238 0.927159 8.52619 0.5 8 0.5C7.47381 0.5 7.04762 0.927159 7.04762 1.45455V2.38284C3.81667 2.8458 1.33333 5.6283 1.33333 8.99545V17.1091H0.761905C0.340476 17.1091 0 17.4503 0 17.8727V18.6364C0 18.7414 0.0857143 18.8273 0.190476 18.8273H5.33333C5.33333 20.302 6.52857 21.5 8 21.5C9.47143 21.5 10.6667 20.302 10.6667 18.8273H15.8095C15.9143 18.8273 16 18.7414 16 18.6364V17.8727C16 17.4503 15.6595 17.1091 15.2381 17.1091ZM8 19.9727C7.36905 19.9727 6.85714 19.4597 6.85714 18.8273H9.14286C9.14286 19.4597 8.63095 19.9727 8 19.9727ZM3.04762 17.1091V8.99545C3.04762 7.66864 3.5619 6.42295 4.49762 5.48511C5.43333 4.54727 6.67619 4.03182 8 4.03182C9.32381 4.03182 10.5667 4.54727 11.5024 5.48511C12.4381 6.42295 12.9524 7.66864 12.9524 8.99545V17.1091H3.04762Z" fill="#2C4755"/>
</svg>
