<svg width="24" height="24" viewBox="0 0 24 24" fill="none" xmlns="http://www.w3.org/2000/svg">
<path d="M10.359 0.995995C10.8244 0.623167 11.4029 0.420013 11.9992 0.420013C12.5956 0.420013 13.1741 0.623167 13.6395 0.995995L21.5145 7.29599C22.137 7.79399 22.5 8.5485 22.5 9.3465V19.875C22.5 20.5712 22.2234 21.2389 21.7312 21.7312C21.2389 22.2234 20.5712 22.5 19.875 22.5H14.625C14.3266 22.5 14.0405 22.3815 13.8295 22.1705C13.6185 21.9595 13.5 21.6734 13.5 21.375V13.5H10.5V21.375C10.5 21.6734 10.3815 21.9595 10.1705 22.1705C9.95952 22.3815 9.67337 22.5 9.375 22.5H4.125C3.42881 22.5 2.76113 22.2234 2.26884 21.7312C1.77656 21.2389 1.5 20.5712 1.5 19.875V9.345C1.5 8.5485 1.863 7.79399 2.4855 7.29599L10.359 0.995995ZM12.234 2.7525C12.1676 2.69943 12.085 2.67053 12 2.67053C11.915 2.67053 11.8324 2.69943 11.766 2.7525L3.891 9.0525C3.84688 9.08773 3.81129 9.13246 3.78687 9.18337C3.76246 9.23428 3.74985 9.29004 3.75 9.3465V19.875C3.75 20.082 3.918 20.25 4.125 20.25H8.25V12.375C8.25 12.0766 8.36853 11.7905 8.5795 11.5795C8.79048 11.3685 9.07663 11.25 9.375 11.25H14.625C14.9234 11.25 15.2095 11.3685 15.4205 11.5795C15.6315 11.7905 15.75 12.0766 15.75 12.375V20.25H19.875C19.9745 20.25 20.0698 20.2105 20.1402 20.1402C20.2105 20.0698 20.25 19.9745 20.25 19.875V9.345C20.2499 9.28879 20.2372 9.23332 20.2128 9.18269C20.1884 9.13206 20.1529 9.08757 20.109 9.0525L12.234 2.7525Z" fill="black"/>
</svg>
