<svg width="24" height="25" viewBox="0 0 24 25" fill="none" xmlns="http://www.w3.org/2000/svg">
<path d="M12 0.5C5.37321 0.5 0 5.87321 0 12.5C0 19.1268 5.37321 24.5 12 24.5C18.6268 24.5 24 19.1268 24 12.5C24 5.87321 18.6268 0.5 12 0.5ZM12 22.4643C6.49821 22.4643 2.03571 18.0018 2.03571 12.5C2.03571 6.99821 6.49821 2.53571 12 2.53571C17.5018 2.53571 21.9643 6.99821 21.9643 12.5C21.9643 18.0018 17.5018 22.4643 12 22.4643Z" fill="#FF8C33"/>
<path d="M14.7921 6.7682C14.0419 6.04101 13.0516 5.64285 12.0012 5.64285C10.9509 5.64285 9.96061 6.04377 9.21038 6.7682C8.43013 7.52304 8 8.53778 8 9.62442V9.83456C8 9.95622 8.09003 10.0558 8.20006 10.0558H9.40044C9.51047 10.0558 9.6005 9.95622 9.6005 9.83456V9.62442C9.6005 8.40506 10.6783 7.41244 12.0012 7.41244C13.3242 7.41244 14.402 8.40506 14.402 9.62442C14.402 10.4843 13.8518 11.2723 12.9991 11.6346C12.4689 11.8585 12.0187 12.2511 11.6961 12.7654C11.3685 13.2908 11.1985 13.9212 11.1985 14.5599V15.1544C11.1985 15.276 11.2885 15.3756 11.3986 15.3756H12.5989C12.709 15.3756 12.799 15.276 12.799 15.1544V14.5267C12.8003 14.2583 12.8747 13.9965 13.0125 13.7756C13.1504 13.5546 13.3453 13.3847 13.5717 13.288C15.0472 12.6604 16 11.2226 16 9.62442C16.0025 8.53778 15.5724 7.52304 14.7921 6.7682ZM11.0009 18.2511C11.0009 18.5445 11.1063 18.8258 11.2939 19.0332C11.4815 19.2406 11.7359 19.3571 12.0012 19.3571C12.2665 19.3571 12.521 19.2406 12.7086 19.0332C12.8962 18.8258 13.0016 18.5445 13.0016 18.2511C13.0016 17.9578 12.8962 17.6765 12.7086 17.4691C12.521 17.2617 12.2665 17.1452 12.0012 17.1452C11.7359 17.1452 11.4815 17.2617 11.2939 17.4691C11.1063 17.6765 11.0009 17.9578 11.0009 18.2511Z" fill="#FF8C33"/>
</svg>
