<svg width="33" height="33" viewBox="0 0 33 33" fill="none" xmlns="http://www.w3.org/2000/svg">
<g clip-path="url(#clip0_95_7951)">
<path d="M25.4062 0.646484H8.40625C4.26411 0.646484 0.90625 4.00435 0.90625 8.14648V25.1465C0.90625 29.2886 4.26411 32.6465 8.40625 32.6465H25.4062C29.5484 32.6465 32.9062 29.2886 32.9062 25.1465V8.14648C32.9062 4.00435 29.5484 0.646484 25.4062 0.646484Z" fill="white"/>
<path d="M16.8161 4.27127C10.4696 4.27127 10.8659 7.02352 10.8659 7.02352L10.873 9.87482H16.9294V10.7309H8.46741C8.46741 10.7309 4.40625 10.2703 4.40625 16.674C4.40625 23.0778 7.95091 22.8508 7.95091 22.8508H10.0664V19.8791C10.0664 19.8791 9.95237 16.3345 13.5545 16.3345H19.5612C19.5612 16.3345 22.9361 16.389 22.9361 13.0728V7.58953C22.9361 7.58953 23.4485 4.27127 16.8161 4.27127ZM13.4766 6.18865C14.0792 6.18865 14.5662 6.67566 14.5662 7.27822C14.5662 7.88078 14.0792 8.36781 13.4766 8.36781C12.8741 8.36781 12.3871 7.88078 12.3871 7.27822C12.3871 6.67566 12.8741 6.18865 13.4766 6.18865Z" fill="url(#paint0_linear_95_7951)"/>
<path d="M16.9964 29.1409C23.3429 29.1409 22.9467 26.3888 22.9467 26.3888L22.9395 23.5374H16.8832V22.6813H25.3452C25.3452 22.6813 29.4063 23.1419 29.4063 16.7382C29.4063 10.3344 25.8617 10.5615 25.8617 10.5615H23.7462V13.5332C23.7462 13.5332 23.8602 17.0778 20.258 17.0778H14.2513C14.2513 17.0778 10.8764 17.0232 10.8764 20.3394V25.8227C10.8764 25.8227 10.364 29.1409 16.9964 29.1409ZM20.3359 27.2235C19.7333 27.2235 19.2463 26.7365 19.2463 26.134C19.2463 25.5314 19.7333 25.0444 20.3359 25.0444C20.9384 25.0444 21.4255 25.5314 21.4255 26.134C21.4255 26.7365 20.9384 27.2235 20.3359 27.2235Z" fill="url(#paint1_linear_95_7951)"/>
</g>
<defs>
<linearGradient id="paint0_linear_95_7951" x1="6.80875" y1="6.50827" x2="19.1979" y2="18.7738" gradientUnits="userSpaceOnUse">
<stop stop-color="#387EB8"/>
<stop offset="1" stop-color="#366994"/>
</linearGradient>
<linearGradient id="paint1_linear_95_7951" x1="14.4133" y1="14.3843" x2="27.7178" y2="26.9614" gradientUnits="userSpaceOnUse">
<stop stop-color="#FFE052"/>
<stop offset="1" stop-color="#FFC331"/>
</linearGradient>
<clipPath id="clip0_95_7951">
<rect width="32" height="32" fill="white" transform="translate(0.90625 0.646484)"/>
</clipPath>
</defs>
</svg>
