<svg width="17" height="16" viewBox="0 0 17 16" fill="none" xmlns="http://www.w3.org/2000/svg">
<path d="M14.6715 13.3516L10.6137 9.29375C11.2434 8.47969 11.584 7.48438 11.584 6.4375C11.584 5.18438 11.0949 4.00937 10.2105 3.12344C9.32617 2.2375 8.14805 1.75 6.89648 1.75C5.64492 1.75 4.4668 2.23906 3.58242 3.12344C2.69648 4.00781 2.20898 5.18438 2.20898 6.4375C2.20898 7.68906 2.69805 8.86719 3.58242 9.75156C4.4668 10.6375 5.64336 11.125 6.89648 11.125C7.94336 11.125 8.93711 10.7844 9.75117 10.1562L13.809 14.2125C13.8209 14.2244 13.835 14.2338 13.8506 14.2403C13.8661 14.2467 13.8828 14.2501 13.8996 14.2501C13.9164 14.2501 13.9331 14.2467 13.9487 14.2403C13.9642 14.2338 13.9783 14.2244 13.9902 14.2125L14.6715 13.5328C14.6834 13.5209 14.6928 13.5068 14.6993 13.4912C14.7057 13.4757 14.709 13.459 14.709 13.4422C14.709 13.4254 14.7057 13.4087 14.6993 13.3931C14.6928 13.3776 14.6834 13.3635 14.6715 13.3516ZM9.37148 8.9125C8.70898 9.57344 7.83086 9.9375 6.89648 9.9375C5.96211 9.9375 5.08398 9.57344 4.42148 8.9125C3.76055 8.25 3.39648 7.37187 3.39648 6.4375C3.39648 5.50312 3.76055 4.62344 4.42148 3.9625C5.08398 3.30156 5.96211 2.9375 6.89648 2.9375C7.83086 2.9375 8.71055 3.3 9.37148 3.9625C10.0324 4.625 10.3965 5.50312 10.3965 6.4375C10.3965 7.37187 10.0324 8.25156 9.37148 8.9125Z" fill="#8E8E93"/>
</svg>
