<svg width="16" height="4" viewBox="0 0 16 4" fill="none" xmlns="http://www.w3.org/2000/svg">
<path d="M0.03125 2.12305C0.03125 2.29541 0.0651987 2.46608 0.131158 2.62532C0.197117 2.78456 0.293796 2.92925 0.415672 3.05112C0.537549 3.173 0.682238 3.26968 0.841478 3.33564C1.00072 3.4016 1.17139 3.43555 1.34375 3.43555C1.51611 3.43555 1.68678 3.4016 1.84602 3.33564C2.00526 3.26968 2.14995 3.173 2.27183 3.05112C2.3937 2.92925 2.49038 2.78456 2.55634 2.62532C2.6223 2.46608 2.65625 2.29541 2.65625 2.12305C2.65625 1.95069 2.6223 1.78001 2.55634 1.62077C2.49038 1.46154 2.3937 1.31685 2.27183 1.19497C2.14995 1.07309 2.00526 0.976415 1.84602 0.910455C1.68678 0.844496 1.51611 0.810547 1.34375 0.810547C1.17139 0.810547 1.00072 0.844496 0.841478 0.910455C0.682238 0.976415 0.537549 1.07309 0.415672 1.19497C0.293796 1.31685 0.197117 1.46154 0.131158 1.62077C0.0651987 1.78001 0.03125 1.95069 0.03125 2.12305ZM6.59375 2.12305C6.59375 2.47114 6.73203 2.80498 6.97817 3.05112C7.22431 3.29727 7.55815 3.43555 7.90625 3.43555C8.25435 3.43555 8.58819 3.29727 8.83433 3.05112C9.08047 2.80498 9.21875 2.47114 9.21875 2.12305C9.21875 1.77495 9.08047 1.44111 8.83433 1.19497C8.58819 0.948827 8.25435 0.810547 7.90625 0.810547C7.55815 0.810547 7.22431 0.948827 6.97817 1.19497C6.73203 1.44111 6.59375 1.77495 6.59375 2.12305ZM13.1562 2.12305C13.1562 2.47114 13.2945 2.80498 13.5407 3.05112C13.7868 3.29727 14.1207 3.43555 14.4688 3.43555C14.8168 3.43555 15.1507 3.29727 15.3968 3.05112C15.643 2.80498 15.7812 2.47114 15.7812 2.12305C15.7812 1.77495 15.643 1.44111 15.3968 1.19497C15.1507 0.948827 14.8168 0.810547 14.4688 0.810547C14.1207 0.810547 13.7868 0.948827 13.5407 1.19497C13.2945 1.44111 13.1562 1.77495 13.1562 2.12305Z" fill="#8054E3"/>
</svg>
