<svg width="18" height="19" viewBox="0 0 18 19" fill="none" xmlns="http://www.w3.org/2000/svg">
<path d="M17.1214 15.3969C16.6793 14.3496 16.0377 13.3984 15.2323 12.5961C14.4294 11.7915 13.4783 11.15 12.4316 10.707C12.4222 10.7023 12.4128 10.7 12.4034 10.6953C13.8636 9.64062 14.8128 7.92266 14.8128 5.98438C14.8128 2.77344 12.2112 0.171875 9.0003 0.171875C5.78937 0.171875 3.1878 2.77344 3.1878 5.98438C3.1878 7.92266 4.13702 9.64062 5.59718 10.6977C5.5878 10.7023 5.57843 10.7047 5.56905 10.7094C4.51905 11.1523 3.57687 11.7875 2.76827 12.5984C1.96368 13.4013 1.32219 14.3524 0.879209 15.3992C0.444027 16.424 0.209323 17.5228 0.187803 18.6359C0.187177 18.661 0.191565 18.6858 0.200707 18.7091C0.209849 18.7324 0.223561 18.7537 0.241035 18.7716C0.258509 18.7895 0.27939 18.8037 0.30245 18.8134C0.32551 18.8231 0.35028 18.8281 0.375303 18.8281H1.78155C1.88468 18.8281 1.96671 18.7461 1.96905 18.6453C2.01593 16.8359 2.74249 15.1414 4.02687 13.857C5.35577 12.5281 7.12062 11.7969 9.0003 11.7969C10.88 11.7969 12.6448 12.5281 13.9737 13.857C15.2581 15.1414 15.9847 16.8359 16.0316 18.6453C16.0339 18.7484 16.1159 18.8281 16.2191 18.8281H17.6253C17.6503 18.8281 17.6751 18.8231 17.6982 18.8134C17.7212 18.8037 17.7421 18.7895 17.7596 18.7716C17.777 18.7537 17.7908 18.7324 17.7999 18.7091C17.809 18.6858 17.8134 18.661 17.8128 18.6359C17.7894 17.5156 17.5573 16.4258 17.1214 15.3969ZM9.0003 10.0156C7.92452 10.0156 6.91202 9.59609 6.1503 8.83438C5.38858 8.07266 4.96905 7.06016 4.96905 5.98438C4.96905 4.90859 5.38858 3.89609 6.1503 3.13437C6.91202 2.37266 7.92452 1.95312 9.0003 1.95312C10.0761 1.95312 11.0886 2.37266 11.8503 3.13437C12.612 3.89609 13.0316 4.90859 13.0316 5.98438C13.0316 7.06016 12.612 8.07266 11.8503 8.83438C11.0886 9.59609 10.0761 10.0156 9.0003 10.0156Z" fill="black"/>
</svg>
