<svg width="24" height="25" viewBox="0 0 24 25" fill="none" xmlns="http://www.w3.org/2000/svg">
<g id="ph:wallet-bold">
<path id="Vector" d="M18.375 13.625C18.375 13.9217 18.287 14.2117 18.1222 14.4584C17.9574 14.705 17.7231 14.8973 17.449 15.0108C17.175 15.1244 16.8734 15.1541 16.5824 15.0962C16.2914 15.0383 16.0241 14.8954 15.8144 14.6857C15.6046 14.4759 15.4617 14.2086 15.4038 13.9176C15.346 13.6267 15.3757 13.3251 15.4892 13.051C15.6027 12.7769 15.795 12.5426 16.0417 12.3778C16.2883 12.213 16.5783 12.125 16.875 12.125C17.2728 12.125 17.6544 12.283 17.9357 12.5643C18.217 12.8456 18.375 13.2272 18.375 13.625ZM22.125 10.625V18.125C22.125 18.9206 21.8089 19.6837 21.2463 20.2463C20.6837 20.8089 19.9207 21.125 19.125 21.125H5.62502C4.82937 21.125 4.06631 20.8089 3.5037 20.2463C2.94109 19.6837 2.62502 18.9206 2.62502 18.125V6.96125C2.61348 6.56009 2.68255 6.16069 2.82814 5.7867C2.97373 5.4127 3.19288 5.07173 3.47261 4.78395C3.75235 4.49618 4.08698 4.26745 4.45669 4.11132C4.82641 3.95519 5.22369 3.87483 5.62502 3.875H18C18.2984 3.875 18.5845 3.99353 18.7955 4.2045C19.0065 4.41548 19.125 4.70163 19.125 5C19.125 5.29837 19.0065 5.58452 18.7955 5.7955C18.5845 6.00647 18.2984 6.125 18 6.125H5.62502C5.52444 6.12495 5.42488 6.14512 5.33226 6.18433C5.23964 6.22354 5.15585 6.28097 5.08588 6.35322C5.01591 6.42546 4.96118 6.51105 4.92496 6.60487C4.88873 6.6987 4.87175 6.79885 4.87502 6.89938V6.90688C4.89077 7.10546 4.98191 7.29048 5.12973 7.42401C5.27755 7.55754 5.47087 7.62946 5.67002 7.625H19.125C19.9207 7.625 20.6837 7.94107 21.2463 8.50368C21.8089 9.06629 22.125 9.82935 22.125 10.625ZM19.875 10.625C19.875 10.4261 19.796 10.2353 19.6553 10.0947C19.5147 9.95402 19.3239 9.875 19.125 9.875H5.67002C5.4018 9.87511 5.13465 9.84109 4.87502 9.77375V18.125C4.87502 18.3239 4.95404 18.5147 5.09469 18.6553C5.23534 18.796 5.42611 18.875 5.62502 18.875H19.125C19.3239 18.875 19.5147 18.796 19.6553 18.6553C19.796 18.5147 19.875 18.3239 19.875 18.125V10.625Z" fill="black"/>
</g>
</svg>
