<svg width="12" height="8" viewBox="0 0 12 8" fill="none" xmlns="http://www.w3.org/2000/svg">
<path d="M4.75095 4.29909H2.89585V6.20011H1.92238V4.29909H0.0672759V3.41746H1.92238V1.51644H2.89585V3.41746H4.75095V4.29909ZM7.87728 3.6746C7.24054 3.35624 6.92218 2.8542 6.92218 2.16848C6.92218 1.83787 7.00483 1.53481 7.17014 1.2593C7.33544 0.983789 7.5834 0.766442 7.91401 0.607258C8.24463 0.441952 8.64871 0.359299 9.12626 0.359299C9.59769 0.359299 9.99871 0.441952 10.3293 0.607258C10.6661 0.766442 10.9171 0.983789 11.0824 1.2593C11.2477 1.53481 11.3303 1.83787 11.3303 2.16848C11.3303 2.51134 11.2416 2.8144 11.064 3.07767C10.8926 3.33481 10.663 3.53379 10.3752 3.6746C10.7242 3.80318 10.9997 4.0144 11.2018 4.30828C11.4038 4.59603 11.5048 4.93583 11.5048 5.32767C11.5048 5.72562 11.4038 6.07767 11.2018 6.38379C10.9997 6.68991 10.7181 6.92562 10.3569 7.09093C9.99565 7.25624 9.58544 7.33889 9.12626 7.33889C8.66708 7.33889 8.25687 7.25624 7.89565 7.09093C7.54054 6.92562 7.26197 6.68991 7.05993 6.38379C6.85789 6.07767 6.75687 5.72562 6.75687 5.32767C6.75687 4.92971 6.85789 4.58685 7.05993 4.29909C7.26197 4.01134 7.53442 3.80318 7.87728 3.6746ZM10.3293 2.29705C10.3293 1.9542 10.2222 1.69093 10.0079 1.50726C9.79361 1.32358 9.49973 1.23175 9.12626 1.23175C8.75891 1.23175 8.4681 1.32358 8.25381 1.50726C8.03952 1.69093 7.93238 1.95726 7.93238 2.30624C7.93238 2.61236 8.04259 2.86338 8.26299 3.0593C8.48952 3.24909 8.77728 3.34399 9.12626 3.34399C9.47524 3.34399 9.76299 3.24603 9.98952 3.05011C10.2161 2.8542 10.3293 2.60318 10.3293 2.29705ZM9.12626 4.13379C8.72218 4.13379 8.39156 4.23481 8.13442 4.43685C7.8834 4.63277 7.75789 4.91746 7.75789 5.29093C7.75789 5.63991 7.88034 5.9246 8.12524 6.14501C8.37014 6.3593 8.70381 6.46644 9.12626 6.46644C9.54259 6.46644 9.87014 6.35624 10.1089 6.13583C10.3538 5.91542 10.4763 5.63379 10.4763 5.29093C10.4763 4.92358 10.3507 4.63889 10.0997 4.43685C9.85483 4.23481 9.53034 4.13379 9.12626 4.13379Z" fill="#909193"/>
</svg>
