<svg width="13" height="13" viewBox="0 0 13 13" fill="none" xmlns="http://www.w3.org/2000/svg">
<g clip-path="url(#clip0_765_141)">
<rect x="-0.00976562" y="0.374512" width="12.1483" height="12.1483" rx="6.07413" fill="white"/>
<rect x="-0.00976562" y="0.374512" width="12.1483" height="12.1483" rx="3.03707" fill="white"/>
<path fill-rule="evenodd" clip-rule="evenodd" d="M5.76022 8.01063C5.76022 8.15641 5.89385 8.27095 6.06393 8.27095C6.23401 8.27095 6.36764 8.15641 6.36764 8.01063V6.7524H7.62586C7.77164 6.7524 7.88618 6.61877 7.88618 6.4487C7.88618 6.27862 7.77164 6.14499 7.62586 6.14499H6.36764V4.88678C6.36764 4.74101 6.23401 4.62646 6.06393 4.62646C5.89385 4.62646 5.76022 4.74101 5.76022 4.88678V6.14499H4.50202C4.35624 6.14499 4.2417 6.27862 4.2417 6.4487C4.2417 6.61877 4.35624 6.7524 4.50202 6.7524H5.76022V8.01063Z" fill="#9FCCDE"/>
</g>
<rect x="0.293941" y="0.678218" width="11.5409" height="11.5409" rx="5.77043" stroke="#9FCCDE" stroke-width="0.607413"/>
<defs>
<clipPath id="clip0_765_141">
<rect x="-0.00976562" y="0.374512" width="12.1483" height="12.1483" rx="6.07413" fill="white"/>
</clipPath>
</defs>
</svg>
