<svg width="32" height="33" viewBox="0 0 32 33" fill="none" xmlns="http://www.w3.org/2000/svg">
<g id="Group 1171275833">
<path id="Ellipse 3233" d="M32 16.3086C32 25.1451 24.8366 32.3086 16 32.3086C7.16344 32.3086 0 25.1451 0 16.3086C0 7.47204 7.16344 0.308594 16 0.308594C24.8366 0.308594 32 7.47204 32 16.3086ZM4.16 16.3086C4.16 22.8476 9.46095 28.1486 16 28.1486C22.5391 28.1486 27.84 22.8476 27.84 16.3086C27.84 9.76954 22.5391 4.46859 16 4.46859C9.46095 4.46859 4.16 9.76954 4.16 16.3086Z" fill="black" fill-opacity="0.08"/>
<g id="Ellipse 3234" filter="url(#filter0_i_188_13129)">
<path d="M14.0152 30.0864C13.8514 31.2234 14.6422 32.2922 15.7908 32.3072C17.287 32.3268 18.782 32.1364 20.2316 31.7389C22.3516 31.1575 24.3291 30.1454 26.0407 28.7659C27.7523 27.3864 29.1612 25.6689 30.1796 23.7207C31.198 21.7725 31.804 19.6354 31.9598 17.4426C32.1156 15.2498 31.8178 13.0484 31.0851 10.9758C30.3524 8.90318 29.2005 7.00379 27.7012 5.3961C26.2019 3.78842 24.3873 2.50695 22.3708 1.63164C20.992 1.03313 19.5389 0.633291 18.055 0.44111C16.9158 0.293567 15.9818 1.23985 15.9832 2.3886C15.9846 3.53736 16.9239 4.44893 18.0552 4.64834C18.9676 4.80914 19.8602 5.07688 20.7144 5.44765C22.2066 6.09538 23.5494 7.04367 24.6589 8.23335C25.7684 9.42304 26.6208 10.8286 27.163 12.3623C27.7052 13.8961 27.9255 15.5251 27.8102 17.1477C27.6949 18.7704 27.2465 20.3519 26.4929 21.7936C25.7393 23.2352 24.6967 24.5061 23.4301 25.527C22.1636 26.5479 20.7002 27.2968 19.1314 27.727C18.2334 27.9733 17.3118 28.1121 16.3859 28.1423C15.2378 28.1797 14.179 28.9493 14.0152 30.0864Z" fill="#E65F2B"/>
</g>
</g>
<defs>
<filter id="filter0_i_188_13129" x="13.9937" y="0.425781" width="18.0063" height="32.8828" filterUnits="userSpaceOnUse" color-interpolation-filters="sRGB">
<feFlood flood-opacity="0" result="BackgroundImageFix"/>
<feBlend mode="normal" in="SourceGraphic" in2="BackgroundImageFix" result="shape"/>
<feColorMatrix in="SourceAlpha" type="matrix" values="0 0 0 0 0 0 0 0 0 0 0 0 0 0 0 0 0 0 127 0" result="hardAlpha"/>
<feOffset dy="3"/>
<feGaussianBlur stdDeviation="0.5"/>
<feComposite in2="hardAlpha" operator="arithmetic" k2="-1" k3="1"/>
<feColorMatrix type="matrix" values="0 0 0 0 1 0 0 0 0 1 0 0 0 0 1 0 0 0 0.25 0"/>
<feBlend mode="normal" in2="shape" result="effect1_innerShadow_188_13129"/>
</filter>
</defs>
</svg>
