<svg width="32" height="33" viewBox="0 0 32 33" fill="none" xmlns="http://www.w3.org/2000/svg">
<g id="Group 1171275832">
<path id="Ellipse 3231" d="M32 16.3086C32 25.1451 24.8366 32.3086 16 32.3086C7.16344 32.3086 0 25.1451 0 16.3086C0 7.47204 7.16344 0.308594 16 0.308594C24.8366 0.308594 32 7.47204 32 16.3086ZM4.16 16.3086C4.16 22.8476 9.46095 28.1486 16 28.1486C22.5391 28.1486 27.84 22.8476 27.84 16.3086C27.84 9.76954 22.5391 4.46859 16 4.46859C9.46095 4.46859 4.16 9.76954 4.16 16.3086Z" fill="black" fill-opacity="0.08"/>
<g id="Ellipse 3232" filter="url(#filter0_i_188_13107)">
<path d="M2.72396 20.4935C1.62835 20.8388 1.00804 22.0148 1.49252 23.0564C2.26401 24.7151 3.3165 26.234 4.60824 27.5437C6.38838 29.3487 8.57194 30.7048 10.979 31.5004C13.386 32.2959 15.9477 32.5081 18.4528 32.1195C20.958 31.7308 23.3349 30.7525 25.3878 29.265C27.4407 27.7776 29.1107 25.8236 30.2603 23.5642C31.4099 21.3047 32.0062 18.8044 32 16.2693C31.9937 13.7342 31.3852 11.2368 30.2245 8.98304C29.3823 7.3476 28.2668 5.87438 26.9309 4.62462C26.092 3.83981 24.7813 4.06296 24.1119 4.99649C23.4425 5.93003 23.6731 7.21852 24.4752 8.04081C25.2938 8.87991 25.9859 9.83871 26.5261 10.8877C27.385 12.5555 27.8354 14.4035 27.84 16.2795C27.8446 18.1555 27.4033 20.0057 26.5526 21.6777C25.7019 23.3497 24.4661 24.7957 22.947 25.8964C21.4278 26.9971 19.6689 27.721 17.8151 28.0086C15.9613 28.2962 14.0657 28.1392 12.2845 27.5505C10.5032 26.9618 8.8874 25.9583 7.5701 24.6226C6.74157 23.7825 6.04605 22.8262 5.50366 21.787C4.97213 20.7686 3.81957 20.1481 2.72396 20.4935Z" fill="#EE201C"/>
</g>
</g>
<defs>
<filter id="filter0_i_188_13107" x="1.32568" y="4.14697" width="30.6743" height="29.1616" filterUnits="userSpaceOnUse" color-interpolation-filters="sRGB">
<feFlood flood-opacity="0" result="BackgroundImageFix"/>
<feBlend mode="normal" in="SourceGraphic" in2="BackgroundImageFix" result="shape"/>
<feColorMatrix in="SourceAlpha" type="matrix" values="0 0 0 0 0 0 0 0 0 0 0 0 0 0 0 0 0 0 127 0" result="hardAlpha"/>
<feOffset dy="3"/>
<feGaussianBlur stdDeviation="0.5"/>
<feComposite in2="hardAlpha" operator="arithmetic" k2="-1" k3="1"/>
<feColorMatrix type="matrix" values="0 0 0 0 1 0 0 0 0 1 0 0 0 0 1 0 0 0 0.25 0"/>
<feBlend mode="normal" in2="shape" result="effect1_innerShadow_188_13107"/>
</filter>
</defs>
</svg>
