<svg width="68" height="67" viewBox="0 0 68 67" fill="none" xmlns="http://www.w3.org/2000/svg">
<mask id="mask0_271_1873" style="mask-type:luminance" maskUnits="userSpaceOnUse" x="0" y="0" width="68" height="67">
<path d="M67.1286 0.057373H0.245117V66.9409H67.1286V0.057373Z" fill="white"/>
</mask>
<g mask="url(#mask0_271_1873)">
<path d="M71.3872 61.7827H-0.62793V73.2899H71.3872V61.7827Z" fill="#E2EAF2"/>
<path d="M54.6731 49.5751C63.5516 40.6967 63.5516 26.3019 54.6731 17.4234C45.7947 8.54496 31.3999 8.54496 22.5214 17.4234C13.643 26.3019 13.643 40.6967 22.5214 49.5751C31.3999 58.4536 45.7947 58.4536 54.6731 49.5751Z" fill="#F2F5F9"/>
<path d="M28.8959 62.7842V69.1564C28.8959 69.7082 24.3332 70.1569 18.7055 70.1569C13.0778 70.1569 8.51514 69.7084 8.51514 69.1564V62.7842H28.8959Z" fill="#B2BDCA"/>
<path d="M26.1305 63.7847V68.4277C26.1305 68.8298 22.806 69.1566 18.7055 69.1566C14.605 69.1566 11.2805 68.8298 11.2805 68.4277V63.7847H26.1305Z" fill="#9AA9B7"/>
<path d="M18.7055 63.7847C24.3332 63.7847 28.8953 63.3365 28.8953 62.7837C28.8953 62.2309 24.3332 61.7827 18.7055 61.7827C13.0778 61.7827 8.51562 62.2309 8.51562 62.7837C8.51562 63.3365 13.0778 63.7847 18.7055 63.7847Z" fill="#C3CAD1"/>
<path d="M28.8953 62.7837C28.8953 63.3366 24.3332 63.7847 18.7055 63.7847C13.0778 63.7847 8.51562 63.3366 8.51562 62.7837" stroke="#708699" stroke-width="0.0696703" stroke-miterlimit="10" stroke-linecap="round"/>
<path d="M27.678 61.1992V62.2589C27.678 62.7448 23.6607 63.1398 18.7057 63.1398C13.7507 63.1398 9.7334 62.7449 9.7334 62.2589V61.1992H27.678Z" fill="#8699AD"/>
<path d="M18.7054 62.0799C23.6604 62.0799 27.6772 61.6853 27.6772 61.1985C27.6772 60.7118 23.6604 60.3171 18.7054 60.3171C13.7504 60.3171 9.73364 60.7118 9.73364 61.1985C9.73364 61.6853 13.7504 62.0799 18.7054 62.0799Z" fill="#B2BDCA"/>
<path d="M25.3213 67.206C25.7274 67.206 26.0566 66.8768 26.0566 66.4707C26.0566 66.0646 25.7274 65.7354 25.3213 65.7354C24.9152 65.7354 24.5859 66.0646 24.5859 66.4707C24.5859 66.8768 24.9152 67.206 25.3213 67.206Z" fill="white"/>
<path d="M22.0451 67.206C22.4512 67.206 22.7804 66.8768 22.7804 66.4707C22.7804 66.0646 22.4512 65.7354 22.0451 65.7354C21.639 65.7354 21.3098 66.0646 21.3098 66.4707C21.3098 66.8768 21.639 67.206 22.0451 67.206Z" fill="white"/>
<path d="M18.7685 67.206C19.1746 67.206 19.5038 66.8768 19.5038 66.4707C19.5038 66.0646 19.1746 65.7354 18.7685 65.7354C18.3624 65.7354 18.0332 66.0646 18.0332 66.4707C18.0332 66.8768 18.3624 67.206 18.7685 67.206Z" fill="white"/>
<path d="M28.8959 55.1506V61.5229C28.8959 62.0747 24.3332 62.5233 18.7055 62.5233C13.0778 62.5233 8.51514 62.0748 8.51514 61.5229V55.1506H28.8959Z" fill="#B2BDCA"/>
<path d="M26.1305 56.1509V60.7939C26.1305 61.196 22.806 61.5228 18.7055 61.5228C14.605 61.5228 11.2805 61.196 11.2805 60.7939V56.1509H26.1305Z" fill="#9AA9B7"/>
<path d="M18.7055 56.1509C24.3332 56.1509 28.8953 55.7027 28.8953 55.1499C28.8953 54.5971 24.3332 54.1489 18.7055 54.1489C13.0778 54.1489 8.51562 54.5971 8.51562 55.1499C8.51562 55.7027 13.0778 56.1509 18.7055 56.1509Z" fill="#C3CAD1"/>
<path d="M28.8953 55.1499C28.8953 55.7028 24.3332 56.1509 18.7055 56.1509C13.0778 56.1509 8.51562 55.7028 8.51562 55.1499" stroke="#708699" stroke-width="0.0696703" stroke-miterlimit="10" stroke-linecap="round"/>
<path d="M27.678 53.5654V54.6251C27.678 55.111 23.6607 55.506 18.7057 55.506C13.7507 55.506 9.7334 55.1111 9.7334 54.6251V53.5654H27.678Z" fill="#8699AD"/>
<path d="M18.7054 54.4461C23.6604 54.4461 27.6772 54.0515 27.6772 53.5647C27.6772 53.078 23.6604 52.6833 18.7054 52.6833C13.7504 52.6833 9.73364 53.078 9.73364 53.5647C9.73364 54.0515 13.7504 54.4461 18.7054 54.4461Z" fill="#B2BDCA"/>
<path d="M25.3213 59.5724C25.7274 59.5724 26.0566 59.2432 26.0566 58.8371C26.0566 58.431 25.7274 58.1018 25.3213 58.1018C24.9152 58.1018 24.5859 58.431 24.5859 58.8371C24.5859 59.2432 24.9152 59.5724 25.3213 59.5724Z" fill="white"/>
<path d="M22.0451 59.5724C22.4512 59.5724 22.7804 59.2432 22.7804 58.8371C22.7804 58.431 22.4512 58.1018 22.0451 58.1018C21.639 58.1018 21.3098 58.431 21.3098 58.8371C21.3098 59.2432 21.639 59.5724 22.0451 59.5724Z" fill="white"/>
<path d="M18.7685 59.5724C19.1746 59.5724 19.5038 59.2432 19.5038 58.8371C19.5038 58.431 19.1746 58.1018 18.7685 58.1018C18.3624 58.1018 18.0332 58.431 18.0332 58.8371C18.0332 59.2432 18.3624 59.5724 18.7685 59.5724Z" fill="white"/>
<path d="M28.8959 47.5168V53.8891C28.8959 54.4409 24.3332 54.8896 18.7055 54.8896C13.0778 54.8896 8.51514 54.441 8.51514 53.8891V47.5168H28.8959Z" fill="#B2BDCA"/>
<path d="M26.1305 48.5173V53.1604C26.1305 53.5625 22.806 53.8893 18.7055 53.8893C14.605 53.8893 11.2805 53.5625 11.2805 53.1604V48.5173H26.1305Z" fill="#9AA9B7"/>
<path d="M18.7055 48.5171C24.3332 48.5171 28.8953 48.0689 28.8953 47.5161C28.8953 46.9633 24.3332 46.5151 18.7055 46.5151C13.0778 46.5151 8.51562 46.9633 8.51562 47.5161C8.51562 48.0689 13.0778 48.5171 18.7055 48.5171Z" fill="#C3CAD1"/>
<path d="M28.8953 47.5161C28.8953 48.069 24.3332 48.5171 18.7055 48.5171C13.0778 48.5171 8.51562 48.069 8.51562 47.5161" stroke="#708699" stroke-width="0.0696703" stroke-miterlimit="10" stroke-linecap="round"/>
<path d="M27.678 45.9316V46.9913C27.678 47.4772 23.6607 47.8722 18.7057 47.8722C13.7507 47.8722 9.7334 47.4773 9.7334 46.9913V45.9316H27.678Z" fill="#8699AD"/>
<path d="M18.7054 46.8123C23.6604 46.8123 27.6772 46.4177 27.6772 45.931C27.6772 45.4442 23.6604 45.0496 18.7054 45.0496C13.7504 45.0496 9.73364 45.4442 9.73364 45.931C9.73364 46.4177 13.7504 46.8123 18.7054 46.8123Z" fill="#B2BDCA"/>
<path d="M25.3213 51.9387C25.7274 51.9387 26.0566 51.6094 26.0566 51.2033C26.0566 50.7972 25.7274 50.468 25.3213 50.468C24.9152 50.468 24.5859 50.7972 24.5859 51.2033C24.5859 51.6094 24.9152 51.9387 25.3213 51.9387Z" fill="white"/>
<path d="M22.0451 51.9387C22.4512 51.9387 22.7804 51.6094 22.7804 51.2033C22.7804 50.7972 22.4512 50.468 22.0451 50.468C21.639 50.468 21.3098 50.7972 21.3098 51.2033C21.3098 51.6094 21.639 51.9387 22.0451 51.9387Z" fill="white"/>
<path d="M18.7685 51.9387C19.1746 51.9387 19.5038 51.6094 19.5038 51.2033C19.5038 50.7972 19.1746 50.468 18.7685 50.468C18.3624 50.468 18.0332 50.7972 18.0332 51.2033C18.0332 51.6094 18.3624 51.9387 18.7685 51.9387Z" fill="white"/>
<path d="M28.8959 39.8831V46.2553C28.8959 46.8071 24.3332 47.2558 18.7055 47.2558C13.0778 47.2558 8.51514 46.8072 8.51514 46.2553V39.8831H28.8959Z" fill="#B2BDCA"/>
<path d="M26.1305 40.8835V45.5266C26.1305 45.9287 22.806 46.2555 18.7055 46.2555C14.605 46.2555 11.2805 45.9287 11.2805 45.5266V40.8835H26.1305Z" fill="#9AA9B7"/>
<path d="M18.7055 40.8835C24.3332 40.8835 28.8953 40.4354 28.8953 39.8826C28.8953 39.3297 24.3332 38.8816 18.7055 38.8816C13.0778 38.8816 8.51562 39.3297 8.51562 39.8826C8.51562 40.4354 13.0778 40.8835 18.7055 40.8835Z" fill="#C3CAD1"/>
<path d="M28.8953 39.8826C28.8953 40.4354 24.3332 40.8835 18.7055 40.8835C13.0778 40.8835 8.51562 40.4354 8.51562 39.8826" stroke="#708699" stroke-width="0.0696703" stroke-miterlimit="10" stroke-linecap="round"/>
<path d="M25.3213 44.3049C25.7274 44.3049 26.0566 43.9757 26.0566 43.5695C26.0566 43.1634 25.7274 42.8342 25.3213 42.8342C24.9152 42.8342 24.5859 43.1634 24.5859 43.5695C24.5859 43.9757 24.9152 44.3049 25.3213 44.3049Z" fill="white"/>
<path d="M22.0451 44.3049C22.4512 44.3049 22.7804 43.9757 22.7804 43.5695C22.7804 43.1634 22.4512 42.8342 22.0451 42.8342C21.639 42.8342 21.3098 43.1634 21.3098 43.5695C21.3098 43.9757 21.639 44.3049 22.0451 44.3049Z" fill="white"/>
<path d="M18.7688 44.3049C19.1749 44.3049 19.5041 43.9757 19.5041 43.5695C19.5041 43.1634 19.1749 42.8342 18.7688 42.8342C18.3627 42.8342 18.0334 43.1634 18.0334 43.5695C18.0334 43.9757 18.3627 44.3049 18.7688 44.3049Z" fill="white"/>
<path d="M26.1498 21.1327H7.59805C6.99115 21.1327 6.49902 20.6407 6.49902 20.0337V7.34937H26.0353C26.7055 7.34937 27.2488 7.89273 27.2488 8.5629V20.0337C27.2488 20.6406 26.7568 21.1327 26.1498 21.1327Z" fill="#EFA765"/>
<path d="M26.3584 21.133H7.85549C7.15682 21.133 6.63553 20.4895 6.7804 19.8061L8.49529 11.7164C8.61421 11.1557 9.10915 10.7546 9.68234 10.7546H27.9512C28.7226 10.7546 29.2982 11.4651 29.1382 12.2198L27.4334 20.2619C27.3258 20.7696 26.8776 21.133 26.3584 21.133Z" fill="#F7C272"/>
<path d="M6.78027 19.8059L8.49517 11.7162C8.61409 11.1554 9.10902 10.7544 9.68222 10.7544H27.951C28.7225 10.7544 29.2981 11.4648 29.1381 12.2195" stroke="#C98839" stroke-width="0.0696703" stroke-miterlimit="10" stroke-linecap="round"/>
<path d="M14.6703 5.22705H7.19392C6.81028 5.22705 6.49927 5.53806 6.49927 5.92184V7.34967H15.9218V6.47858C15.9217 5.78727 15.3615 5.22705 14.6703 5.22705Z" fill="#EFA765"/>
<path d="M8.92285 7.34937H15.9215" stroke="#C98839" stroke-width="0.0696703" stroke-miterlimit="10" stroke-linecap="round"/>
<path d="M15.2712 13.514C15.2617 13.4337 15.2231 13.3714 15.1556 13.327C15.088 13.2827 15.0051 13.2605 14.9069 13.2605C14.8351 13.2605 14.7722 13.2721 14.7184 13.2954C14.6651 13.3186 14.6233 13.3505 14.5932 13.3912C14.5637 13.4319 14.5489 13.4781 14.5489 13.5298C14.5489 13.5731 14.5592 13.6103 14.5798 13.6415C14.6009 13.6721 14.6278 13.6977 14.6606 13.7183C14.6933 13.7384 14.7276 13.755 14.7635 13.7682C14.7994 13.7809 14.8324 13.7912 14.8625 13.7991L15.0273 13.8434C15.0695 13.8545 15.1165 13.8698 15.1682 13.8894C15.2205 13.9089 15.2704 13.9356 15.3179 13.9694C15.366 14.0026 15.4056 14.0454 15.4367 14.0977C15.4679 14.1499 15.4835 14.2141 15.4835 14.2901C15.4835 14.3778 15.4605 14.457 15.4145 14.5277C15.3691 14.5985 15.3026 14.6547 15.215 14.6964C15.1278 14.7381 15.022 14.759 14.8974 14.759C14.7812 14.759 14.6806 14.7402 14.5956 14.7027C14.5111 14.6653 14.4446 14.613 14.396 14.5459C14.348 14.4789 14.3208 14.401 14.3145 14.3123H14.5172C14.5225 14.3735 14.5431 14.4242 14.579 14.4644C14.6154 14.504 14.6614 14.5335 14.7168 14.5531C14.7728 14.5721 14.833 14.5816 14.8974 14.5816C14.9723 14.5816 15.0397 14.5694 15.0993 14.5451C15.159 14.5203 15.2063 14.486 15.2411 14.4422C15.2759 14.3978 15.2934 14.3461 15.2934 14.2869C15.2934 14.2331 15.2783 14.1893 15.2482 14.1555C15.2181 14.1217 15.1785 14.0942 15.1294 14.0731C15.0803 14.052 15.0273 14.0335 14.9702 14.0177L14.7707 13.9606C14.6439 13.9242 14.5436 13.8722 14.4697 13.8046C14.3958 13.737 14.3588 13.6486 14.3588 13.5393C14.3588 13.4485 14.3834 13.3693 14.4325 13.3017C14.4821 13.2336 14.5486 13.1808 14.6321 13.1433C14.716 13.1053 14.8097 13.0863 14.9132 13.0863C15.0178 13.0863 15.1107 13.105 15.192 13.1425C15.2733 13.1795 15.3377 13.2302 15.3852 13.2946C15.4333 13.359 15.4586 13.4321 15.4613 13.514H15.2712ZM16.3956 14.2236H16.6111L16.7916 14.4612L16.8392 14.5245L17.1084 14.8825H16.893L16.7156 14.6449L16.6713 14.5847L16.3956 14.2236ZM17.175 13.9195C17.175 14.0905 17.1441 14.2384 17.0823 14.363C17.0205 14.4876 16.9358 14.5837 16.8281 14.6513C16.7204 14.7189 16.5973 14.7526 16.459 14.7526C16.3207 14.7526 16.1976 14.7189 16.0899 14.6513C15.9822 14.5837 15.8975 14.4876 15.8357 14.363C15.7739 14.2384 15.743 14.0905 15.743 13.9195C15.743 13.7484 15.7739 13.6006 15.8357 13.4759C15.8975 13.3513 15.9822 13.2552 16.0899 13.1877C16.1976 13.1201 16.3207 13.0863 16.459 13.0863C16.5973 13.0863 16.7204 13.1201 16.8281 13.1877C16.9358 13.2552 17.0205 13.3513 17.0823 13.4759C17.1441 13.6006 17.175 13.7484 17.175 13.9195ZM16.9849 13.9195C16.9849 13.779 16.9614 13.6605 16.9144 13.5639C16.8679 13.4672 16.8048 13.3941 16.7251 13.3445C16.6459 13.2948 16.5572 13.27 16.459 13.27C16.3608 13.27 16.2718 13.2948 16.1921 13.3445C16.1129 13.3941 16.0498 13.4672 16.0028 13.5639C15.9563 13.6605 15.9331 13.779 15.9331 13.9195C15.9331 14.0599 15.9563 14.1784 16.0028 14.2751C16.0498 14.3717 16.1129 14.4448 16.1921 14.4945C16.2718 14.5441 16.3608 14.5689 16.459 14.5689C16.5572 14.5689 16.6459 14.5441 16.7251 14.4945C16.8048 14.4448 16.8679 14.3717 16.9144 14.2751C16.9614 14.1784 16.9849 14.0599 16.9849 13.9195ZM17.5052 14.7305V13.1085H17.7016V14.5562H18.4556V14.7305H17.5052Z" fill="white"/>
<path d="M15.1243 21.7402V26.4359L23.5647 26.4032V38.8815" stroke="#A8C5E2" stroke-width="0.0696703" stroke-miterlimit="10"/>
<path d="M15.1241 22.6767C14.607 22.6767 14.1877 22.2575 14.1877 21.7403V20.804H16.0605V21.7403C16.0606 22.2575 15.6414 22.6767 15.1241 22.6767Z" fill="#5F799E"/>
<path d="M24.5012 39.1269H22.6284V38.4581C22.6284 37.941 23.0476 37.5217 23.5648 37.5217C24.0819 37.5217 24.5012 37.941 24.5012 38.4581V39.1269Z" fill="#5F799E"/>
<path d="M25.9122 26.9602C26.2183 25.6635 25.4154 24.3641 24.1187 24.0579C22.822 23.7518 21.5227 24.5547 21.2165 25.8514C20.9103 27.1481 21.7133 28.4474 23.0099 28.7536C24.3066 29.0598 25.606 28.2568 25.9122 26.9602Z" stroke="#EA7468" stroke-width="0.0696703" stroke-miterlimit="10"/>
<path d="M23.9741 27.3902C24.519 27.1644 24.7778 26.5397 24.5521 25.9947C24.3264 25.4498 23.7016 25.191 23.1566 25.4167C22.6117 25.6424 22.3529 26.2672 22.5786 26.8122C22.8044 27.3571 23.4291 27.6159 23.9741 27.3902Z" fill="#EA7468"/>
<path d="M15.5367 28.8911H3.93042V44.1123H15.5367V28.8911Z" fill="#E2EAF2"/>
<path d="M13.2843 30.1924H6.18286V31.0118H13.2843V30.1924Z" fill="white"/>
<path d="M13.2845 32.1589H6.18311V32.9784H13.2845V32.1589Z" fill="white"/>
<path d="M13.2845 34.1255H6.18311V34.9449H13.2845V34.1255Z" fill="white"/>
<path d="M13.2845 36.092H6.18311V36.9115H13.2845V36.092Z" fill="white"/>
<path d="M13.2845 38.0586H6.18311V38.878H13.2845V38.0586Z" fill="white"/>
<path d="M13.2845 40.0251H6.18311V40.8446H13.2845V40.0251Z" fill="white"/>
<path d="M13.2845 41.9917H6.18311V42.8112H13.2845V41.9917Z" fill="white"/>
<path d="M49.0444 6.85034C46.042 6.85034 43.6086 9.28356 43.6086 12.2861C43.6086 15.2885 46.0419 17.7236 49.0444 17.7236C52.0468 17.7236 54.4819 15.2885 54.4819 12.2861C54.482 9.28356 52.0468 6.85034 49.0444 6.85034ZM49.0444 15.8171C47.0955 15.8171 45.5151 14.2367 45.5151 12.2861C45.5151 10.3372 47.0955 8.75679 49.0444 8.75679C50.9951 8.75679 52.5756 10.3372 52.5756 12.2861C52.5756 14.2367 50.9951 15.8171 49.0444 15.8171Z" fill="#D3E4F2"/>
<path d="M49.9535 3.5166H48.1362V7.23359H49.9535V3.5166Z" fill="#D3E4F2"/>
<path d="M43.4856 5.44331L42.2007 6.72827L44.829 9.35655L46.1139 8.07159L43.4856 5.44331Z" fill="#D3E4F2"/>
<path d="M40.2747 11.3781V13.1953H43.9916V11.3781H40.2747Z" fill="#D3E4F2"/>
<path d="M42.2014 17.8459L43.4863 19.1309L46.1146 16.5026L44.8296 15.2176L42.2014 17.8459Z" fill="#D3E4F2"/>
<path d="M48.1361 21.0569H49.9534V17.3399H48.1361V21.0569Z" fill="#D3E4F2"/>
<path d="M54.604 19.1304L55.8889 17.8455L53.2606 15.2172L51.9757 16.5021L54.604 19.1304Z" fill="#D3E4F2"/>
<path d="M57.8147 13.1954V11.3782H54.0977V13.1954H57.8147Z" fill="#D3E4F2"/>
<path d="M55.8882 6.72759L54.6033 5.44263L51.975 8.07091L53.26 9.35587L55.8882 6.72759Z" fill="#D3E4F2"/>
<path d="M49.0454 14.1909C50.0971 14.1909 50.9497 13.3384 50.9497 12.2866C50.9497 11.2349 50.0971 10.3823 49.0454 10.3823C47.9937 10.3823 47.1411 11.2349 47.1411 12.2866C47.1411 13.3384 47.9937 14.1909 49.0454 14.1909Z" fill="#D3E4F2"/>
<path d="M36.4845 17.293C35.2761 17.293 34.2966 18.2724 34.2966 19.4809C34.2966 20.6893 35.2761 21.6696 36.4845 21.6696C37.693 21.6696 38.6732 20.6894 38.6732 19.4809C38.6732 18.2723 37.693 17.293 36.4845 17.293ZM36.4845 20.9023C35.7001 20.9023 35.0639 20.2661 35.0639 19.481C35.0639 18.6966 35.7 18.0604 36.4845 18.0604C37.2697 18.0604 37.9058 18.6966 37.9058 19.481C37.9058 20.2661 37.2697 20.9023 36.4845 20.9023Z" fill="#D3E4F2"/>
<path d="M36.8503 15.9512H36.1189V17.4472H36.8503V15.9512Z" fill="#D3E4F2"/>
<path d="M34.2472 16.7272L33.73 17.2444L34.7878 18.3022L35.305 17.785L34.2472 16.7272Z" fill="#D3E4F2"/>
<path d="M32.9548 19.1155V19.8469H34.4509V19.1155H32.9548Z" fill="#D3E4F2"/>
<path d="M33.7299 21.7191L34.2471 22.2363L35.3049 21.1785L34.7877 20.6613L33.7299 21.7191Z" fill="#D3E4F2"/>
<path d="M36.1189 23.011H36.8503V21.5149H36.1189V23.011Z" fill="#D3E4F2"/>
<path d="M38.7225 22.2352L39.2397 21.718L38.1819 20.6602L37.6647 21.1774L38.7225 22.2352Z" fill="#D3E4F2"/>
<path d="M40.0149 19.8469V19.1155H38.5188V19.8469H40.0149Z" fill="#D3E4F2"/>
<path d="M39.2396 17.243L38.7224 16.7258L37.6646 17.7837L38.1818 18.3009L39.2396 17.243Z" fill="#D3E4F2"/>
<path d="M36.4847 20.2478C36.9081 20.2478 37.2512 19.9046 37.2512 19.4813C37.2512 19.058 36.9081 18.7148 36.4847 18.7148C36.0614 18.7148 35.7183 19.058 35.7183 19.4813C35.7183 19.9046 36.0614 20.2478 36.4847 20.2478Z" fill="#D3E4F2"/>
<path d="M25.5921 26.5353C25.4651 26.9664 24.9507 27.7742 25.0519 28.1119C25.1532 28.4495 26.6048 29.1246 26.9425 29.0909C27.2801 29.0572 29.407 27.9584 29.407 27.9584L28.7993 26.0188L25.5921 26.5353Z" fill="#F28B79"/>
<path d="M26.4583 27.2444C26.3571 27.4465 26.4583 27.9266 26.4583 27.9266L27.0309 28.6191" stroke="#C95B4C" stroke-width="0.0696703" stroke-miterlimit="10" stroke-linecap="round"/>
<path d="M27.448 27.2444V27.7651L27.9399 28.4349" stroke="#C95B4C" stroke-width="0.0696703" stroke-miterlimit="10" stroke-linecap="round"/>
<path d="M38.6857 36.1692L37.9948 37.4797C37.9948 37.4797 32.4809 28.9466 31.3319 27.7651L29.4336 30.1895C29.4336 30.1895 32.8887 44.1598 37.185 45.0865C41.7015 46.0607 43.2816 42.229 44.3541 37.1732C45.4266 32.1175 38.6857 36.1692 38.6857 36.1692Z" fill="#FCA697"/>
<path d="M49.8421 24.3818C49.8421 24.3818 43.9501 25.2928 42.8777 25.9858C41.8053 26.6789 37.9946 36.7136 37.9946 36.7136L47.0881 38.1689L52.7506 34.5687L49.8421 24.3818Z" fill="#87A1CF"/>
<path d="M53.0222 23.6851C57.0285 24.0765 60.9218 24.9399 61.7018 26.4358C62.4818 27.9318 65.3099 39.8671 65.3099 39.8671H58.4119L51.3943 26.0753L51.3113 24.2319L53.0222 23.6851Z" fill="#87A1CF"/>
<path d="M43.5063 26.9113C43.5063 26.9113 53.9311 24.829 60.6561 26.9113L59.2728 36.1691L59.0229 46.3524H45.3155L44.7391 36.1691L43.5063 26.9113Z" fill="#87A1CF"/>
<path d="M44.5833 33.0006C47.6974 33.2293 57.5029 32.3044 57.5029 32.3044L58.4645 36.9393C58.4645 36.9393 49.3155 38.207 44.3542 37.1732L44.5833 33.0006Z" fill="#A2BADD"/>
<path d="M57.0449 30.1028C57.3216 31.4213 59.0699 39.8579 59.0699 39.8579" stroke="#3A6599" stroke-width="0.0696703" stroke-miterlimit="10" stroke-linecap="round"/>
<path d="M44.9473 31.2754L44.47 34.7256" stroke="#3A6599" stroke-width="0.0696703" stroke-miterlimit="10" stroke-linecap="round"/>
<path d="M55.3332 23.9639C55.3332 23.9639 54.4384 27.7605 50.787 27.6899C47.3284 27.623 47.5683 24.7343 47.5683 24.7343C47.5683 24.7343 49.3435 23.9795 51.3548 23.6852C53.3661 23.3908 55.3332 23.9639 55.3332 23.9639Z" fill="white"/>
<path d="M49.2634 23.7442C49.2634 23.7442 49.2634 23.8697 49.2634 25.0027C49.2634 26.1357 50.436 26.912 52.0351 26.0999C53.3943 25.4095 53.5521 24.5658 53.5521 23.8721C53.5521 23.1784 53.5521 20.3118 53.5521 20.3118L49.2701 23.1429L49.2634 23.7442Z" fill="#FCA697"/>
<path opacity="0.46" d="M52.3104 21.9242C52.0736 23.8674 50.7869 25.0867 49.265 25.0867C49.2634 25.0699 49.2634 25.0518 49.2634 25.035V21.4927L52.3104 21.9242Z" fill="#FCA695"/>
<path d="M47.767 14.5129C45.3659 16.1042 45.4387 18.2815 45.7956 20.0746C46.1811 22.0114 47.5349 23.3757 49.2633 23.3757C51.6017 23.3757 53.513 21.9261 53.7075 19.6752C53.902 17.4243 53.3688 14.7793 51.6342 14.513C49.8997 14.2465 47.767 14.5129 47.767 14.5129Z" fill="#FCA697"/>
<path d="M47.5681 18.1621C47.5681 18.3735 47.4607 18.5447 47.3282 18.5447C47.1958 18.5447 47.0884 18.3733 47.0884 18.1621C47.0884 17.9509 47.1958 17.7795 47.3282 17.7795C47.4607 17.7794 47.5681 17.9508 47.5681 18.1621Z" fill="#5A2402"/>
<path d="M50.322 18.1621C50.322 18.3735 50.2146 18.5447 50.0821 18.5447C49.9497 18.5447 49.8423 18.3733 49.8423 18.1621C49.8423 17.9509 49.9497 17.7795 50.0821 17.7795C50.2147 17.7794 50.322 17.9508 50.322 18.1621Z" fill="#5A2402"/>
<path d="M49.6779 16.4148C50.2486 16.1717 51.1335 16.4551 51.2161 16.825C51.2988 17.1948 51.1542 17.3798 50.989 17.3798C50.8238 17.3798 50.4217 16.9087 49.6469 17.1024C49.3728 17.1709 49.1718 16.6306 49.6779 16.4148Z" fill="#5A2402"/>
<path d="M47.849 16.4148C47.3738 16.1717 46.637 16.4551 46.5683 16.825C46.4995 17.1948 46.6198 17.3798 46.7574 17.3798C46.8949 17.3798 47.2299 16.9087 47.8749 17.1024C48.1031 17.1709 48.2705 16.6306 47.849 16.4148Z" fill="#5A2402"/>
<path d="M53.3722 20.4866C54.3948 20.3859 54.963 18.9965 54.6903 18.3168C54.4176 17.637 53.5085 17.6702 52.9631 18.7466" fill="#FCA697"/>
<path opacity="0.46" d="M54.1878 18.5726C54.389 18.691 54.5668 19.1028 54.1082 19.4865C53.6496 19.8701 53.1884 19.8316 53.1884 19.8316C53.1884 19.8316 53.1104 19.2961 53.4022 18.9875C53.6939 18.6789 54.052 18.4823 54.1878 18.5726Z" fill="#FCA695"/>
<path d="M53.2812 19.1739C53.7585 18.3599 54.2357 18.4963 54.3266 18.7009" stroke="#DB7665" stroke-width="0.0696703" stroke-miterlimit="10" stroke-linecap="round"/>
<path d="M53.5522 18.8594C53.9177 18.7465 53.9404 19.2324 53.8041 19.353" stroke="#DB7665" stroke-width="0.0696703" stroke-miterlimit="10" stroke-linecap="round"/>
<path d="M49.2634 23.3757C51.2723 23.4399 52.9015 22.0602 53.2813 21.1328" stroke="#DB7665" stroke-width="0.0696703" stroke-miterlimit="10" stroke-linecap="round"/>
<path d="M49.5545 20.7081C49.7191 20.7075 50.1629 20.3776 50.2166 20.4867C50.2702 20.5959 50.1073 20.8285 49.9473 20.9358C49.7872 21.0432 49.39 20.7087 49.5545 20.7081Z" fill="#FCA695"/>
<path opacity="0.46" d="M51.6973 18.9635C51.6973 19.1786 51.4741 19.353 51.1985 19.353C50.923 19.353 50.6997 19.1786 50.6997 18.9635C50.6997 18.7484 50.9231 18.574 51.1985 18.574C51.474 18.574 51.6973 18.7484 51.6973 18.9635Z" fill="#FCA695"/>
<path opacity="0.46" d="M47.3284 18.9635C47.3284 19.1786 47.1051 19.353 46.8296 19.353C46.5541 19.353 46.3308 19.1786 46.3308 18.9635C46.3308 18.7484 46.5542 18.574 46.8296 18.574C47.1051 18.574 47.3284 18.7484 47.3284 18.9635Z" fill="#FCA695"/>
<path d="M53.8038 17.9052C52.8471 18.3858 52.7739 19.3531 52.7739 19.3531C52.7739 19.3531 52.2021 17.7611 52.5544 16.5572C52.5544 16.5572 51.5609 15.9355 51.1982 15.0577C51.1982 15.0577 49.7749 16.1183 48.312 16.0086C46.8491 15.899 48.1082 14.8383 48.1082 14.8383C48.1082 14.8383 46.412 16.3869 45.9356 16.6367C45.9356 16.6367 45.6805 15.2772 45.9356 14.8383C46.1907 14.3994 46.548 14.2166 46.548 14.2166C46.548 14.2166 46.1613 13.3754 47.328 12.7902C48.4947 12.2051 51.9087 11.6805 53.8805 13.9617C55.8522 16.243 54.3965 17.9552 54.3965 17.9552L53.8038 17.9052Z" fill="#5A2402"/>
<path d="M52.5721 18.4234C51.9159 21.3347 50.4604 22.1296 48.6492 22.2554C47.0574 22.366 46.4512 21.5032 46.1739 21.1016C46.1153 21.0168 46.0204 20.8647 45.9914 20.792C45.9252 20.6266 45.9172 20.563 45.9172 20.563C45.9172 20.563 45.8241 23.836 48.4242 24.2953C50.2271 24.614 51.0855 24.0245 52.1474 22.9851C53.2092 21.9457 53.6544 20.4724 53.3724 20.4866C53.3724 20.4866 52.8813 20.1641 52.7737 19.2875C52.666 18.4111 53.2006 17.6883 53.1794 17.6114C53.1581 17.5346 52.5721 18.4234 52.5721 18.4234Z" fill="#5A2402"/>
<path d="M51.1494 21.5063C49.9693 20.4026 47.4969 20.3983 46.9308 22.0124L46.5483 21.8889C46.5483 21.8889 47.2617 19.6419 49.1438 19.7876C51.0259 19.9334 51.5408 21.3688 51.5408 21.3688L51.1494 21.5063Z" fill="#5A2402"/>
<path d="M48.5544 17.9861C48.4829 18.376 48.2654 19.262 48.1629 19.6737C48.1338 19.7906 48.2149 19.9062 48.3347 19.9178C48.5863 19.9423 49.1009 19.7622 49.2634 19.6888" fill="#FCA697"/>
<path d="M48.5544 17.9861C48.4829 18.376 48.2654 19.262 48.1629 19.6737C48.1338 19.7906 48.2149 19.9062 48.3347 19.9178C48.5863 19.9423 49.1009 19.7622 49.2634 19.6888" stroke="#DB7665" stroke-width="0.0696703" stroke-miterlimit="10" stroke-linecap="round"/>
<path d="M48.5168 20.9956C48.8382 20.9888 49.307 20.8993 49.5407 20.8257C49.6108 20.8037 49.6801 20.8675 49.6623 20.9389C49.6198 21.109 49.4955 21.3451 49.1378 21.4253C48.7608 21.5097 48.5456 21.3026 48.4409 21.1461C48.3985 21.083 48.441 20.9972 48.5168 20.9956Z" fill="white"/>
<path d="M62.6247 69.626H53.9998L51.6341 55.0719L50.8262 69.626H42.9478C42.5108 60.9916 44.2368 51.4943 44.9833 47.8711C45.1845 46.9013 45.315 46.3525 45.315 46.3525H59.0234C59.223 47.2171 59.4493 48.3897 59.6884 49.751C60.9664 57.0037 62.6247 69.626 62.6247 69.626Z" fill="#C4BA8C"/>
<path d="M50.2271 46.3525V53.5559H51.3978V48.5063" stroke="#706536" stroke-width="0.0696703" stroke-miterlimit="10" stroke-linecap="round"/>
<path d="M58.0574 46.5403L61.2773 69.6266" stroke="#706536" stroke-width="0.0696703" stroke-miterlimit="10" stroke-linecap="round"/>
<path d="M50.2268 53.5559L49.4126 69.6265" stroke="#706536" stroke-width="0.0696703" stroke-miterlimit="10" stroke-linecap="round"/>
<path opacity="0.57" d="M59.6883 49.751L59.6678 49.9538L44.9848 47.8727L44.9832 47.8711C45.1843 46.9013 45.3148 46.3525 45.3148 46.3525H59.0232C59.2231 47.2171 59.4494 48.3897 59.6883 49.751Z" fill="#C4BA8C"/>
<path d="M53.0077 41.4286H43.556C43.2795 41.4286 43.0554 41.2044 43.0554 40.9281V35.2264C43.0554 34.9499 43.2796 34.7258 43.556 34.7258H53.0077C53.2842 34.7258 53.5082 34.95 53.5082 35.2264V40.9281C53.5084 41.2046 53.2842 41.4286 53.0077 41.4286Z" fill="#E9EEFF"/>
<path d="M52.4623 41.4286H43.0106C42.7341 41.4286 42.51 41.2044 42.51 40.9281V35.2264C42.51 34.9499 42.7342 34.7258 43.0106 34.7258H52.4623C52.7388 34.7258 52.9628 34.95 52.9628 35.2264V40.9281C52.963 41.2046 52.7388 41.4286 52.4623 41.4286Z" fill="white"/>
<path d="M51.5805 40.617H43.8924C43.6159 40.617 43.3918 40.3928 43.3918 40.1164V36.0382C43.3918 35.7617 43.616 35.5376 43.8924 35.5376H51.5805C51.857 35.5376 52.0811 35.7618 52.0811 36.0382V40.1164C52.0811 40.3928 51.857 40.617 51.5805 40.617Z" fill="#E9EEFF"/>
<path d="M64.1889 39.8746C64.5827 41.3542 65.3103 46.0664 64.1889 47.3249C62.1855 49.5734 49.4128 44.1726 49.4128 44.1726L50.2316 40.8396L59.1423 41.1835L59.0697 39.8579L64.1889 39.8746Z" fill="#FCA697"/>
<path d="M50.2315 40.8397C50.2315 40.8397 49.9807 40.1659 49.8271 39.6345C49.6735 39.103 48.9223 38.872 48.5733 38.2925C48.2242 37.7131 47.857 38.4929 48.3063 39.1417C48.7556 39.7905 48.6478 39.7095 48.6478 39.7095C48.6478 39.7095 47.3063 39.1892 46.3884 38.0895C45.8724 37.4713 45.5502 38.6074 46.0658 39.4646C46.0658 39.4646 45.6996 37.9243 45.3254 38.0895C44.9513 38.2547 44.8977 39.5489 45.5222 40.3219C45.5222 40.3219 44.8309 39.1747 44.6192 39.4585C44.4074 39.7422 45.1636 41.7713 46.0657 42.2543C46.0657 42.2543 44.8308 40.5364 44.6192 40.8397C44.4074 41.1431 46.1287 43.5523 49.6644 44.1594C53.2002 44.7665 50.2315 40.8397 50.2315 40.8397Z" fill="#FCA697"/>
<path d="M45.8091 38.647C46.041 39.6433 46.6301 40.1703 46.6301 40.1703L45.8091 38.647Z" fill="#FCA697"/>
<path d="M45.8091 38.647C46.041 39.6433 46.6301 40.1703 46.6301 40.1703" stroke="#DB7665" stroke-width="0.0696703" stroke-miterlimit="10" stroke-linecap="round"/>
<path d="M45.2073 39.8582C45.5449 40.4495 46.2195 41.0681 46.2195 41.0681L45.2073 39.8582Z" fill="#FCA697"/>
<path d="M45.2073 39.8582C45.5449 40.4495 46.2195 41.0681 46.2195 41.0681" stroke="#DB7665" stroke-width="0.0696703" stroke-miterlimit="10" stroke-linecap="round"/>
<path d="M45.084 41.0679C45.3991 41.6115 46.0406 41.8134 46.0406 41.8134L45.084 41.0679Z" fill="#FCA697"/>
<path d="M45.084 41.0679C45.3991 41.6115 46.0406 41.8134 46.0406 41.8134" stroke="#DB7665" stroke-width="0.0696703" stroke-miterlimit="10" stroke-linecap="round"/>
<path d="M31.3319 27.7651C31.1282 27.4029 30.1491 25.6475 29.609 25.4448C29.0688 25.2423 27.0309 25.6459 27.0309 25.6459C27.0309 25.6459 24.2075 26.1199 23.5659 25.985C23.5659 25.985 23.4122 27.0734 25.8278 26.9264C27.4478 26.8278 28.2248 26.5927 28.2248 26.5927L28.7325 27.5554C28.7325 27.5554 28.2248 28.4493 27.6509 28.5507C27.077 28.652 25.7265 28.6183 25.6928 29.1246C25.6591 29.6309 28.0222 29.766 28.0222 29.766L29.4336 30.1894L31.3319 27.7651Z" fill="#FCA697"/>
<path d="M61.2771 43.0566C61.2771 43.0566 60.5656 41.7966 59.1421 41.1838L61.2771 43.0566Z" fill="#FCA697"/>
<path d="M61.2771 43.0566C61.2771 43.0566 60.5656 41.7966 59.1421 41.1838" stroke="#DB7665" stroke-width="0.0696703" stroke-miterlimit="10" stroke-linecap="round"/>
<path d="M37.9949 37.4797C38.8652 38.8565 39.2152 41.068 39.2152 41.068L37.9949 37.4797Z" fill="#FCA697"/>
<path d="M37.9949 37.4797C38.8652 38.8565 39.2152 41.068 39.2152 41.068" stroke="#DB7665" stroke-width="0.0696703" stroke-miterlimit="10" stroke-linecap="round"/>
<path d="M29.4338 30.1894C29.9361 29.5479 30.4531 28.8875 30.4531 28.8875L29.4338 30.1894Z" fill="#FCA697"/>
<path d="M29.4338 30.1894C29.9361 29.5479 30.4531 28.8875 30.4531 28.8875" stroke="#DB7665" stroke-width="0.0696703" stroke-miterlimit="10" stroke-linecap="round"/>
</g>
</svg>
