<svg width="10" height="11" viewBox="0 0 10 11" fill="none" xmlns="http://www.w3.org/2000/svg">
<g id="Close">
<path id="Vector" d="M5.82436 5.09375L9.96987 0.204688C10.0394 0.123438 9.98092 0 9.87354 0H8.6133C8.53908 0 8.46801 0.0328125 8.41905 0.0890625L5 4.12188L1.58095 0.0890625C1.53357 0.0328125 1.4625 0 1.3867 0H0.126466C0.0190775 0 -0.0393545 0.123438 0.0301321 0.204688L4.17564 5.09375L0.0301321 9.98281C0.0145664 10.0009 0.00458048 10.0231 0.00135941 10.0466C-0.00186166 10.0702 0.00181744 10.0942 0.0119603 10.1157C0.0221031 10.1373 0.0382837 10.1555 0.0585806 10.1682C0.0788775 10.1809 0.102438 10.1876 0.126466 10.1875H1.3867C1.46092 10.1875 1.53199 10.1547 1.58095 10.0984L5 6.06563L8.41905 10.0984C8.46643 10.1547 8.5375 10.1875 8.6133 10.1875H9.87354C9.98092 10.1875 10.0394 10.0641 9.96987 9.98281L5.82436 5.09375Z" fill="#8054E3"/>
</g>
</svg>
