<svg width="272" height="143" viewBox="0 0 272 143" fill="none" xmlns="http://www.w3.org/2000/svg">
<rect width="272" height="144" transform="translate(0 -1)" fill="#FBDFDD"/>
<path d="M165.714 48.7646H106.286C105.021 48.7646 104 49.8462 104 51.1848V99.5882C104 100.927 105.021 102.008 106.286 102.008H165.714C166.979 102.008 168 100.927 168 99.5882V51.1848C168 49.8462 166.979 48.7646 165.714 48.7646ZM162.857 96.563H109.143V93.5453L119.036 81.1193L129.757 94.5815L146.436 73.647L162.857 94.2638V96.563ZM162.857 86.7462L146.871 66.6739C146.643 66.3865 146.229 66.3865 146 66.6739L129.757 87.0638L119.471 74.1537C119.243 73.8663 118.829 73.8663 118.6 74.1537L109.143 86.0277V54.21H162.857V86.7462ZM121.143 71.1512C121.968 71.1512 122.786 70.9791 123.548 70.6446C124.311 70.3101 125.004 69.8199 125.588 69.2019C126.171 68.5838 126.634 67.8502 126.95 67.0427C127.266 66.2352 127.429 65.3697 127.429 64.4957C127.429 63.6217 127.266 62.7563 126.95 61.9488C126.634 61.1413 126.171 60.4076 125.588 59.7896C125.004 59.1716 124.311 58.6814 123.548 58.3469C122.786 58.0124 121.968 57.8403 121.143 57.8403C119.476 57.8403 117.877 58.5415 116.698 59.7896C115.519 61.0378 114.857 62.7306 114.857 64.4957C114.857 66.2609 115.519 67.9537 116.698 69.2019C117.877 70.45 119.476 71.1512 121.143 71.1512ZM121.143 62.3781C122.25 62.3781 123.143 63.3235 123.143 64.4957C123.143 65.668 122.25 66.6134 121.143 66.6134C120.036 66.6134 119.143 65.668 119.143 64.4957C119.143 63.3235 120.036 62.3781 121.143 62.3781Z" fill="white"/>
</svg>
