<svg width="171" height="56" viewBox="0 0 171 56" fill="none" xmlns="http://www.w3.org/2000/svg">
<g id="logo-3 13" clip-path="url(#clip0_452_3515)">
<g id="Clip path group">
<mask id="mask0_452_3515" style="mask-type:luminance" maskUnits="userSpaceOnUse" x="0" y="0" width="171" height="56">
<g id="clip0_201_35">
<path id="Vector" d="M171 0H0V56H171V0Z" fill="white"/>
</g>
</mask>
<g mask="url(#mask0_452_3515)">
<g id="Group">
<path id="Vector_2" d="M38.9761 38.7623C37.7014 41.8094 35.1302 43.3201 32.0113 43.8561C22.7284 45.4513 11.3558 33.4063 4.85046 26.4592C0.33707 21.6394 15.01 8.34048 20.2028 11.4719C25.3956 14.6035 26.5603 17.0543 34.9281 14.5236C43.2957 11.993 43.6879 27.4994 38.9761 38.7623Z" fill="#FF8222"/>
<path id="Vector_3" fill-rule="evenodd" clip-rule="evenodd" d="M33.9438 14.1715C32.6912 14.665 31.7041 16.0464 32.0815 17.4276C32.098 17.4799 32.1303 17.5255 32.174 17.5578C32.2177 17.5902 32.2703 17.6076 32.3243 17.6076C32.3783 17.6076 32.4309 17.5902 32.4746 17.5578C32.5181 17.5255 32.5506 17.4799 32.5671 17.4276C33.0389 18.4929 34.0365 19.3309 35.2576 18.8711C36.6675 18.3384 37.417 16.3855 36.7583 15.0272C36.2621 14.0117 34.896 13.7987 33.9438 14.1715ZM35.0287 17.5448C34.1552 18.1982 33.1943 17.4667 32.8414 16.6216C33.0441 16.0747 33.3148 15.5812 33.8548 15.2599C34.3631 14.9562 35.2087 14.7947 35.6978 15.2173C36.3251 15.757 35.4865 17.2039 35.0287 17.5466V17.5448Z" fill="#343434"/>
<path id="Vector_4" fill-rule="evenodd" clip-rule="evenodd" d="M30.0817 19.1257C30.3906 18.9947 30.7342 18.9652 31.0614 19.0413C31.3268 19.1182 31.5604 19.2756 31.729 19.4911C31.8974 19.7066 31.9921 19.9692 31.9992 20.2408C32.0078 20.5145 31.9491 20.7864 31.8282 21.0331C31.7073 21.2799 31.5276 21.4945 31.3045 21.6586C30.7366 22.0801 29.9916 22.063 29.3473 21.8668C29.248 21.8421 29.1599 21.7856 29.097 21.7062C29.0341 21.6267 28.9999 21.5289 29 21.4283C29.0082 21.3677 29.0164 21.3071 29.0247 21.2466C29.081 20.8319 29.1372 20.4186 29.1736 20.0003C29.1771 19.9493 29.1952 19.9004 29.226 19.8594C29.2568 19.8182 29.2989 19.7866 29.3473 19.7682C29.5154 19.482 29.7729 19.2566 30.0817 19.1257ZM29.8857 21.0563C30.1843 21.0974 30.5126 21.0785 30.7054 20.9079C30.8037 20.8383 30.8812 20.7438 30.9295 20.6345C30.9778 20.5252 30.9951 20.405 30.9798 20.2869C30.9794 20.2792 30.9797 20.2743 30.9799 20.2702C30.9806 20.2553 30.9809 20.2507 30.9496 20.1681C30.9887 20.2746 30.8359 20.0348 30.9277 20.1316C30.8862 20.0878 30.8893 20.0787 30.8893 20.0787C30.8864 20.0787 30.8735 20.0761 30.8269 20.0548C30.9571 20.1197 30.6845 20.0548 30.8165 20.0548C30.6037 20.0409 30.3875 20.0869 30.17 20.1332C30.0414 20.1606 29.9123 20.188 29.7832 20.2032C29.811 20.4899 29.8474 20.7732 29.8857 21.0563Z" fill="#343434"/>
<path id="Vector_5" fill-rule="evenodd" clip-rule="evenodd" d="M41.3254 13.429L41.3256 13.428C41.5795 11.9813 41.8319 10.5432 41.9646 9.07173C42.006 8.95386 42.0112 8.82604 41.9796 8.70511C41.9735 8.6415 41.9523 8.58036 41.9176 8.52701C41.883 8.47366 41.8361 8.42973 41.781 8.39902C41.6981 8.33106 41.5973 8.28951 41.4912 8.27962C41.1795 8.25446 40.8579 8.22519 40.5288 8.19524C38.1084 7.97494 35.2887 7.71832 33.126 8.7976C31.4776 9.61956 30.1563 10.8558 28.838 12.0892C27.2539 13.5711 25.6742 15.0489 23.5374 15.7987C23.4173 15.8356 23.3158 15.918 23.2542 16.0289C23.1925 16.1398 23.1753 16.2707 23.2062 16.3942C23.3315 16.9184 23.4189 17.4512 23.4678 17.9885C21.3057 17.2233 17.6372 17.0904 15.6423 18.1684C13.9047 17.4141 12.5253 19.0983 11.3398 20.5458C11.0479 20.9022 10.7679 21.2442 10.4971 21.5319C8.12803 24.0546 5.88152 26.5335 4.06048 29.5052C4.02072 29.5762 3.99988 29.6563 4 29.738C4.00011 29.8197 4.0212 29.8998 4.06115 29.9706C4.1011 30.0414 4.15856 30.1004 4.22783 30.1418C4.29709 30.1832 4.37579 30.2054 4.45614 30.2065C5.41926 30.1466 6.36377 29.9102 7.24399 29.5086C7.31443 29.4772 7.37274 29.4232 7.40986 29.3548C7.44697 29.2864 7.46083 29.2074 7.44927 29.1301C10.3215 28.4511 13.2596 28.1025 16.2085 28.0908C16.0131 28.3969 16.2946 28.8527 16.6223 28.7534C16.9343 29.1718 17.3008 29.5452 17.7117 29.8634C17.3466 29.9678 16.9807 30.0673 16.6161 30.1664C14.156 30.8351 11.749 31.4894 9.99868 33.5633C8.38937 35.4747 7.86799 38.248 7.37053 40.8942C7.13265 42.1595 6.90025 43.3958 6.55696 44.4947C6.40797 44.9741 7.05361 45.3356 7.38471 44.9824C7.978 44.3554 8.61839 43.7763 9.30012 43.2502C8.73265 44.6221 7.96958 45.9015 7.03539 47.0477C6.65629 47.5069 7.02381 48.0702 7.57509 47.9928C8.31205 47.8901 9.33886 46.8721 10.1806 46.0376C10.5641 45.6574 10.9092 45.3154 11.1709 45.1153C11.3595 44.9717 11.5483 44.8283 11.737 44.685L11.7389 44.6835C13.3411 43.467 14.9382 42.2544 16.4188 40.8857C18.9251 38.5699 20.7081 35.5124 20.2959 32.1405C20.7241 32.4935 21.1773 32.8138 21.6517 33.0991C21.6424 33.2452 21.681 33.3903 21.7614 33.5118C21.8419 33.6333 21.9597 33.7243 22.0964 33.7706C22.2331 33.8168 22.381 33.8159 22.5172 33.7677C22.6532 33.7195 22.7698 33.627 22.8486 33.5044C22.9049 33.4284 22.9642 33.3582 23.0253 33.2863C23.0506 33.2564 23.0762 33.226 23.102 33.195C22.9958 33.8184 23.0051 34.4757 23.0142 35.1203C23.0167 35.3001 23.0192 35.4787 23.0192 35.6554C23.0192 35.9808 23.0206 36.3047 23.0219 36.6275C23.0304 38.5885 23.0386 40.5095 22.7345 42.4733C22.655 42.9778 23.14 43.3562 23.5622 43.0989C23.5324 43.2803 23.5037 43.4618 23.4749 43.6432C23.3439 44.4703 23.2131 45.2956 22.9877 46.1092C22.8702 46.528 23.3486 46.9333 23.7261 46.6861C26.1365 45.1052 28.5601 43.252 30.4225 41.0236C32.4091 38.6439 33.1359 36.9235 32.6922 33.6861C32.6818 33.6385 32.6569 33.5956 32.6211 33.5633C32.977 31.6763 32.9107 29.4026 32.8181 27.6586C32.912 27.6935 33.014 27.7 33.1115 27.6773C33.2091 27.6546 33.298 27.6038 33.3677 27.5308C34.0777 26.7163 34.8584 25.8983 35.6518 25.0669C37.4795 23.1514 39.3745 21.1656 40.627 18.9925C40.8902 18.5363 41.0746 15.3875 41.113 14.7311C41.1174 14.6566 41.1199 14.6142 41.1204 14.6115C41.1872 14.2161 41.2563 13.8223 41.3254 13.429ZM6.70264 28.4019C6.64832 28.4605 6.6095 28.5321 6.58982 28.61C6.57013 28.688 6.57022 28.7697 6.59007 28.8476C6.20394 28.986 5.80757 29.0928 5.40474 29.1672C6.66457 27.3055 8.05352 25.5664 9.47229 23.8191C9.58803 23.6767 9.73122 23.4923 9.89705 23.2789C11.0638 21.7769 13.3481 18.8363 15.0397 18.9319C15.0081 19.0067 14.9809 19.0757 14.9585 19.1328C14.9341 19.1949 14.9152 19.2429 14.9023 19.2683C14.2728 20.5518 13.1909 21.7135 12.1934 22.7847C12.0603 22.9276 11.9287 23.0689 11.8 23.2087C11.0158 24.0614 10.1888 24.8727 9.36175 25.684C8.45651 26.5719 7.55132 27.4598 6.70264 28.4019ZM17.0975 27.1137C17.0501 27.0668 16.9938 27.0303 16.932 27.0064C16.8702 26.9823 16.8043 26.9714 16.7382 26.9742C13.9495 27.0467 11.1727 27.372 8.44092 27.9462C10.4788 25.8053 12.472 23.6123 14.3676 21.3419C15.7631 19.6601 16.5479 18.7923 18.8209 18.5838C20.0199 18.4739 21.1922 18.6039 22.3711 18.7346C22.7434 18.7759 23.1164 18.8173 23.491 18.8512C23.4363 19.8384 23.087 20.6406 22.3934 21.5117C22.3409 21.4679 22.2808 21.4342 22.2163 21.4126C21.2594 21.0762 20.2115 21.7607 19.5509 22.4216C18.8904 23.0825 18.1388 24.1958 18.5709 25.1174C18.612 25.1972 18.6821 25.2575 18.7663 25.2856V25.2975C18.2034 25.8978 17.6521 26.4999 17.0975 27.1137ZM22.3387 24.2732C23.1263 25.2751 23.9704 26.2298 24.8667 27.1322C25.3132 27.5887 25.7948 28.0082 26.3071 28.3869C25.9008 28.7647 25.4904 29.139 25.0803 29.5133C24.7968 29.772 24.5132 30.0308 24.2311 30.2906C24.443 28.5133 23.5114 26.6389 22.6795 24.9647C22.5628 24.73 22.4482 24.4992 22.3387 24.2732ZM25.0538 25.8205C24.128 24.8705 23.1503 23.9744 22.1253 23.1363C22.1853 23.0681 22.2451 22.9998 22.3049 22.9315C22.5236 22.6818 22.7417 22.4329 22.9678 22.1912C23.9363 24.1707 25.8551 25.8272 27.4973 27.2297C27.4293 27.2989 27.3586 27.3654 27.288 27.432C27.2316 27.4852 27.175 27.5384 27.1198 27.593C27.0503 27.5543 26.9825 27.5156 26.9146 27.4702C26.3232 27.0818 25.8063 26.5704 25.3019 26.0717C25.2189 25.9897 25.1364 25.908 25.0538 25.8272V25.8205ZM21.2313 22.7663C20.803 23.1856 20.3787 23.6134 19.9582 24.0495C20.0593 23.8365 20.1819 23.6348 20.324 23.4475C20.4822 23.2462 20.6745 23.0754 20.8919 22.943C20.9313 22.9443 20.9704 22.9345 21.0046 22.9146C21.0388 22.8947 21.0668 22.8655 21.0856 22.8303C21.1206 22.818 21.1527 22.8029 21.1839 22.7881C21.1999 22.7806 21.2156 22.7731 21.2313 22.7663ZM15.0298 40.657C13.6806 41.9721 12.184 43.1493 10.7056 44.3014C10.5926 44.3925 10.3277 44.6365 9.99646 44.9415C9.71608 45.1996 9.38827 45.5016 9.06503 45.7914C9.77694 44.5654 10.4325 43.3209 10.886 41.952C11.0251 41.5348 10.507 41.1194 10.1444 41.3717C9.37546 41.8946 8.63697 42.4623 7.93268 43.072C8.06591 42.4549 8.18009 41.8344 8.29414 41.2148C8.62367 39.424 8.95209 37.6394 9.73546 35.9614C11.2048 32.8191 14.3083 31.9622 17.3047 31.135C17.5156 31.0768 17.726 31.0186 17.9352 30.9599L17.8073 31.1214C16.1673 33.1936 14.5213 35.2736 13.2369 37.5996C13.0714 37.8837 13.3395 38.2924 13.6706 38.1747C15.2317 37.6264 16.6737 36.3584 17.6438 35.0214C18.0974 34.3924 18.9268 33.1714 19.1669 32.0901C19.5642 35.61 17.5213 38.2235 15.0298 40.657ZM18.0494 31.9488C17.85 32.685 17.3935 33.3859 16.982 34.0176L16.9253 34.1048C16.2352 35.1584 15.3616 36.0754 14.3477 36.8108C15.0327 35.3145 16.0967 34.1326 17.1755 32.9342C17.4681 32.6092 17.7619 32.2828 18.0494 31.9488ZM19.0559 29.3925C18.9614 29.3023 18.8525 29.1879 18.7324 29.0619C18.4045 28.7177 17.9937 28.2865 17.566 28.0218C18.0461 27.6098 18.4964 27.1659 18.9385 26.7134C19.1495 28.0115 19.5665 29.2662 20.1734 30.4285C19.7976 30.0871 19.4251 29.7406 19.0559 29.3925ZM22.3669 32.0834C21.8438 31.7671 21.3457 31.41 20.877 31.0154C20.8922 30.976 20.8922 30.9321 20.877 30.8926C20.3306 29.3014 19.9012 27.6712 19.5924 26.0156C19.8462 25.7352 20.0943 25.4549 20.3424 25.1747L20.4912 25.0065C20.9257 27.3319 21.5198 29.6235 22.2693 31.8647C22.2952 31.9385 22.3384 32.0049 22.3951 32.0581C22.3887 32.0683 22.3833 32.079 22.3785 32.0901L22.3669 32.0834ZM23.0291 31.4106C22.7667 29.8016 22.188 28.2711 21.6095 26.7414C21.3416 26.0327 21.0736 25.3241 20.8372 24.6079C21.0163 24.402 21.1948 24.1949 21.3734 23.9877L21.3756 23.9852C21.4968 23.8445 21.618 23.7039 21.7395 23.5635C21.7395 23.5697 21.7462 23.5758 21.7534 23.5823C21.758 23.5865 21.7627 23.5908 21.766 23.5955C21.7406 23.6141 21.7218 23.6404 21.712 23.6706C21.7021 23.7008 21.7019 23.7333 21.7114 23.7636C21.8772 24.3598 22.0112 25.0142 22.149 25.6866C22.5063 27.4308 22.8884 29.2966 23.9148 30.5832C23.8323 30.6608 23.7483 30.7385 23.6638 30.8168C23.4552 31.0098 23.2434 31.2059 23.0407 31.4106H23.0291ZM31.6129 37.6735C31.4276 38.945 30.3812 39.9252 29.4534 40.7942C29.262 40.9735 29.0755 41.1481 28.9028 41.3196C27.4083 42.818 25.7624 44.1523 23.9927 45.3003C24.0175 44.5419 24.0522 43.7867 24.1483 43.0216C24.1554 42.9609 24.14 42.8997 24.1051 42.8499C24.0702 42.8002 24.0183 42.7654 23.9596 42.7525C24.9791 41.8268 26.0146 40.9185 27.05 40.0103C27.2638 39.8228 27.4774 39.6354 27.691 39.4478C28.0652 39.1196 28.5232 38.7756 29.0025 38.4154C30.0265 37.6459 31.1484 36.8028 31.7619 35.8842L31.7617 35.89C31.7368 36.4783 31.7119 37.0718 31.6228 37.6735H31.6129ZM30.1792 35.6823C28.143 37.6113 26.0819 39.5134 23.938 41.3196C24.0115 40.0468 23.9754 38.7675 23.9395 37.4929L23.938 37.4414C23.9218 36.638 23.9858 35.8209 24.0497 35.0047C24.1292 33.9893 24.2086 32.9753 24.1334 31.9908C24.5505 31.5569 24.9876 31.1499 25.4329 30.7363C25.4896 30.7886 25.5596 30.8242 25.6349 30.8388C26.3467 30.9431 26.9228 30.4553 27.4278 29.998C27.948 29.4875 28.3707 28.8837 28.6743 28.2169C28.7143 28.1436 28.7369 28.0618 28.7405 27.978C28.7439 27.8942 28.728 27.8108 28.6942 27.7343C29.5551 27.0397 30.4243 26.7437 31.9108 27.292C31.8493 27.962 31.838 28.6872 31.8265 29.4293C31.7907 31.7365 31.7524 34.2062 30.1892 35.6823H30.1792ZM34.3974 24.7155C33.0056 26.3357 32.1187 26.0786 30.6421 25.6506C30.313 25.5553 29.9547 25.4514 29.5551 25.3579C29.4569 25.3299 29.3531 25.3289 29.2545 25.3552C29.1558 25.3815 29.0658 25.4342 28.9939 25.5076C28.6958 25.8961 28.3797 26.2628 28.0553 26.621C26.9257 25.7273 26.0246 24.6407 25.121 23.5512C24.5877 22.9082 24.0536 22.2642 23.4712 21.658C23.8353 21.2965 24.1996 20.95 24.5753 20.6137C24.63 20.5571 24.6693 20.487 24.689 20.4103C24.7088 20.3335 24.7083 20.253 24.688 20.1764C24.6736 20.1074 24.6593 20.0387 24.6451 19.9705L24.6449 19.9694C24.2851 18.2452 23.9857 16.8108 25.769 15.9535C26.8459 15.4352 27.7663 14.5244 28.625 13.6748C28.7497 13.5514 28.8732 13.4292 28.9955 13.3098C29.0956 13.2122 29.1967 13.1134 29.2985 13.0137C30.747 11.5958 32.3732 10.0042 34.3312 9.48881C36.3462 8.96055 38.6994 9.14528 40.8146 9.31132L40.9333 9.32063C40.9048 9.57125 40.8762 9.82889 40.8471 10.0923C40.4684 13.5121 39.9828 17.8978 38.0014 20.4102C36.8442 21.8784 35.6225 23.3045 34.4073 24.7155H34.3974Z" fill="#333333"/>
<path id="Vector_6" d="M171 39.2998C114.006 38.0831 103.977 40.884 88 42.0977C136.39 40.8321 74.506 55.3175 97.4906 49.7002C126.222 42.6785 129.948 43.1983 171 39.2998Z" fill="#FF8C33"/>
<path id="Vector_7" d="M59.9172 23.7948H56.3558V29.6995C56.3558 30.0657 56.3651 30.4318 56.3835 30.798C56.4018 31.1459 56.4662 31.4663 56.5767 31.7592C56.7055 32.0339 56.8896 32.2628 57.1288 32.4459C57.3865 32.6106 57.7546 32.693 58.2331 32.693C58.5276 32.693 58.8313 32.6656 59.1442 32.6106C59.4571 32.5557 59.7424 32.455 60 32.3085V34.5606C59.7055 34.7253 59.319 34.8352 58.8405 34.8901C58.3804 34.9633 58.0215 35 57.7638 35C56.8068 35 56.0614 34.8718 55.5276 34.6155C55.0123 34.3409 54.6257 33.993 54.3681 33.5719C54.1288 33.1508 53.9816 32.6839 53.9264 32.1712C53.8896 31.6402 53.8712 31.1093 53.8712 30.5783V23.7948H51V21.6526H53.8712V18H56.3558V21.6526H59.9172V23.7948Z" fill="#333333"/>
<path id="Vector_8" d="M64.6667 28C64.6667 28.6747 64.7686 29.3025 64.9723 29.8835C65.1759 30.4457 65.463 30.9331 65.8333 31.3453C66.2037 31.739 66.6574 32.0576 67.1945 32.3012C67.7315 32.5261 68.3333 32.6386 69 32.6386C69.6667 32.6386 70.2685 32.5261 70.8056 32.3012C71.3426 32.0576 71.7963 31.739 72.1667 31.3453C72.537 30.9331 72.8241 30.4457 73.0278 29.8835C73.2315 29.3025 73.3333 28.6747 73.3333 28C73.3333 27.3253 73.2315 26.7069 73.0278 26.1446C72.8241 25.5636 72.537 25.0763 72.1667 24.6828C71.7963 24.2704 71.3426 23.9518 70.8056 23.7269C70.2685 23.4833 69.6667 23.3614 69 23.3614C68.3333 23.3614 67.7315 23.4833 67.1945 23.7269C66.6574 23.9518 66.2037 24.2704 65.8333 24.6828C65.463 25.0763 65.1759 25.5636 64.9723 26.1446C64.7686 26.7069 64.6667 27.3253 64.6667 28ZM62 28C62 27.0255 62.176 26.1165 62.5278 25.2731C62.8982 24.4298 63.3981 23.6894 64.0278 23.0522C64.6574 22.415 65.3982 21.9184 66.25 21.5622C67.1019 21.1875 68.0186 21 69 21C69.9815 21 70.8981 21.1875 71.75 21.5622C72.6018 21.9184 73.3426 22.415 73.9723 23.0522C74.6019 23.6894 75.0927 24.4298 75.4445 25.2731C75.8149 26.1165 76 27.0255 76 28C76 28.9745 75.8149 29.8929 75.4445 30.755C75.0927 31.5984 74.6019 32.3386 73.9723 32.9759C73.3426 33.5943 72.6018 34.091 71.75 34.4658C70.8981 34.8219 69.9815 35 69 35C68.0186 35 67.1019 34.8219 66.25 34.4658C65.3982 34.091 64.6574 33.5943 64.0278 32.9759C63.3981 32.3386 62.8982 31.5984 62.5278 30.755C62.176 29.8929 62 28.9745 62 28Z" fill="#333333"/>
<path id="Vector_9" d="M79 21.3281H81.5302V23.1875H81.5864C82.0736 22.4949 82.7389 21.9571 83.5823 21.5742C84.4444 21.1915 85.3254 21 86.225 21C87.2557 21 88.1834 21.1732 89.008 21.5196C89.8514 21.8659 90.5635 22.349 91.1446 22.9688C91.7443 23.5886 92.2034 24.3177 92.522 25.1563C92.8407 25.9766 93 26.8607 93 27.8086C93 28.7747 92.8407 29.6771 92.522 30.5156C92.2034 31.336 91.7443 32.056 91.1446 32.6758C90.5635 33.2774 89.8514 33.7514 89.008 34.0976C88.1834 34.444 87.2557 34.6172 86.225 34.6172C85.2691 34.6172 84.3694 34.4258 83.5261 34.043C82.6827 33.642 82.0362 33.1041 81.5864 32.4297H81.5302V42H79V21.3281ZM85.9157 23.2969C85.241 23.2969 84.6319 23.4154 84.0883 23.6524C83.5449 23.8711 83.0857 24.181 82.7109 24.5821C82.3361 24.9649 82.0456 25.4389 81.8393 26.004C81.6332 26.5509 81.5302 27.1524 81.5302 27.8086C81.5302 28.4649 81.6332 29.0755 81.8393 29.6406C82.0456 30.1875 82.3361 30.6615 82.7109 31.0625C83.0857 31.4454 83.5449 31.7552 84.0883 31.9922C84.6319 32.211 85.241 32.3204 85.9157 32.3204C86.5904 32.3204 87.1995 32.211 87.743 31.9922C88.2865 31.7552 88.7457 31.4454 89.1205 31.0625C89.4953 30.6615 89.7858 30.1875 89.992 29.6406C90.1981 29.0755 90.3012 28.4649 90.3012 27.8086C90.3012 27.1524 90.1981 26.5509 89.992 26.004C89.7858 25.4389 89.4953 24.9649 89.1205 24.5821C88.7457 24.181 88.2865 23.8711 87.743 23.6524C87.1995 23.4154 86.5904 23.2969 85.9157 23.2969Z" fill="#333333"/>
<path id="Vector_10" d="M96.6364 21.6479H99.3636V35H96.6364V21.6479ZM96 16.8592C96 16.3521 96.1919 15.9202 96.5758 15.5634C96.9798 15.1879 97.4546 15 98 15C98.5454 15 99.0101 15.1879 99.394 15.5634C99.798 15.9202 100 16.3521 100 16.8592C100 17.3662 99.798 17.8076 99.394 18.1831C99.0101 18.5399 98.5454 18.7183 98 18.7183C97.4546 18.7183 96.9798 18.5399 96.5758 18.1831C96.1919 17.8076 96 17.3662 96 16.8592Z" fill="#333333"/>
<path id="Vector_11" d="M102 31.7785L109.53 23.1393H102.253V21H112.609V23.1941L105.024 31.8607H113V34H102V31.7785Z" fill="#333333"/>
<path id="Vector_12" d="M129 34.6719H126.47V32.8125H126.414C125.926 33.5051 125.252 34.0429 124.39 34.4258C123.546 34.8085 122.675 35 121.776 35C120.745 35 119.807 34.8268 118.964 34.4804C118.14 34.1341 117.427 33.651 116.827 33.0312C116.247 32.4114 115.797 31.6914 115.478 30.871C115.16 30.0508 115 29.1575 115 28.1914C115 27.2253 115.16 26.332 115.478 25.5117C115.797 24.6731 116.247 23.9531 116.827 23.3515C117.427 22.7318 118.14 22.2486 118.964 21.9024C119.807 21.556 120.745 21.3828 121.776 21.3828C122.731 21.3828 123.631 21.5834 124.474 21.9844C125.318 22.3671 125.964 22.8959 126.414 23.5703H126.47V14H129V34.6719ZM122.084 32.7031C122.759 32.7031 123.368 32.5938 123.911 32.375C124.456 32.138 124.915 31.8281 125.289 31.4453C125.664 31.0443 125.955 30.5703 126.16 30.0234C126.366 29.4583 126.47 28.8476 126.47 28.1914C126.47 27.5351 126.366 26.9336 126.16 26.3867C125.955 25.8216 125.664 25.3476 125.289 24.9649C124.915 24.5638 124.456 24.2539 123.911 24.0351C123.368 23.7981 122.759 23.6796 122.084 23.6796C121.41 23.6796 120.8 23.7981 120.257 24.0351C119.713 24.2539 119.255 24.5638 118.88 24.9649C118.505 25.3476 118.214 25.8216 118.008 26.3867C117.802 26.9336 117.7 27.5351 117.7 28.1914C117.7 28.8476 117.802 29.4583 118.008 30.0234C118.214 30.5703 118.505 31.0443 118.88 31.4453C119.255 31.8281 119.713 32.138 120.257 32.375C120.8 32.5938 121.41 32.7031 122.084 32.7031Z" fill="#333333"/>
<path id="Vector_13" d="M132.722 22.9679C133.455 22.312 134.303 21.8247 135.267 21.5061C136.231 21.1687 137.195 21 138.159 21C139.162 21 140.019 21.1218 140.733 21.3655C141.465 21.6091 142.063 21.9371 142.526 22.3494C142.988 22.7618 143.325 23.2396 143.538 23.7832C143.769 24.3079 143.884 24.8608 143.884 25.4418V32.2449C143.884 32.7135 143.894 33.1445 143.914 33.5382C143.933 33.9317 143.962 34.3065 144 34.6627H141.687C141.629 33.988 141.601 33.3133 141.601 32.6386H141.542C140.964 33.5006 140.28 34.1098 139.489 34.4658C138.698 34.8219 137.783 35 136.743 35C136.106 35 135.498 34.9156 134.92 34.747C134.342 34.5782 133.831 34.3253 133.387 33.988C132.963 33.6506 132.626 33.2382 132.375 32.751C132.125 32.2449 132 31.6639 132 31.008C132 30.1459 132.192 29.4243 132.578 28.8433C132.982 28.2624 133.522 27.7939 134.197 27.4378C134.892 27.0629 135.691 26.8006 136.597 26.6506C137.523 26.482 138.506 26.3976 139.547 26.3976H141.455V25.8353C141.455 25.498 141.388 25.1606 141.253 24.8233C141.118 24.4859 140.915 24.1861 140.646 23.9237C140.377 23.6426 140.038 23.4271 139.634 23.2771C139.229 23.1085 138.747 23.0241 138.188 23.0241C137.687 23.0241 137.243 23.071 136.858 23.1647C136.491 23.2584 136.154 23.3802 135.845 23.5302C135.538 23.6614 135.257 23.8206 135.007 24.0081C134.757 24.1955 134.515 24.3735 134.284 24.5422L132.722 22.9679ZM140.068 28.253C139.451 28.253 138.814 28.2905 138.159 28.3655C137.523 28.4217 136.934 28.5435 136.395 28.7309C135.875 28.9184 135.441 29.1807 135.094 29.518C134.766 29.8554 134.602 30.2865 134.602 30.8112C134.602 31.5796 134.863 32.1325 135.383 32.4698C135.923 32.8072 136.646 32.9759 137.552 32.9759C138.265 32.9759 138.872 32.8635 139.373 32.6386C139.875 32.3949 140.28 32.0857 140.588 31.7108C140.896 31.336 141.118 30.9237 141.253 30.4739C141.388 30.0053 141.455 29.5462 141.455 29.0964V28.253H140.068Z" fill="#333333"/>
<path id="Vector_14" d="M153.917 23.7948H150.356V29.6995C150.356 30.0657 150.365 30.4318 150.384 30.798C150.402 31.1459 150.466 31.4663 150.576 31.7592C150.706 32.0339 150.889 32.2628 151.129 32.4459C151.386 32.6106 151.755 32.693 152.233 32.693C152.528 32.693 152.831 32.6656 153.144 32.6106C153.457 32.5557 153.743 32.455 154 32.3085V34.5606C153.705 34.7253 153.32 34.8352 152.841 34.8901C152.381 34.9633 152.021 35 151.764 35C150.807 35 150.062 34.8718 149.528 34.6155C149.013 34.3409 148.626 33.993 148.368 33.5719C148.129 33.1508 147.982 32.6839 147.926 32.1712C147.89 31.6402 147.872 31.1093 147.872 30.5783V23.7948H145V21.6526H147.872V18H150.356V21.6526H153.917V23.7948Z" fill="#333333"/>
<path id="Vector_15" d="M159.667 28C159.667 28.6747 159.768 29.3025 159.972 29.8835C160.176 30.4457 160.463 30.9331 160.833 31.3453C161.203 31.739 161.658 32.0576 162.194 32.3012C162.731 32.5261 163.334 32.6386 164 32.6386C164.666 32.6386 165.269 32.5261 165.806 32.3012C166.342 32.0576 166.796 31.739 167.167 31.3453C167.537 30.9331 167.824 30.4457 168.028 29.8835C168.232 29.3025 168.333 28.6747 168.333 28C168.333 27.3253 168.232 26.7069 168.028 26.1446C167.824 25.5636 167.537 25.0763 167.167 24.6828C166.796 24.2704 166.342 23.9518 165.806 23.7269C165.269 23.4833 164.666 23.3614 164 23.3614C163.334 23.3614 162.731 23.4833 162.194 23.7269C161.658 23.9518 161.203 24.2704 160.833 24.6828C160.463 25.0763 160.176 25.5636 159.972 26.1446C159.768 26.7069 159.667 27.3253 159.667 28ZM157 28C157 27.0255 157.175 26.1165 157.528 25.2731C157.898 24.4298 158.398 23.6894 159.028 23.0522C159.657 22.415 160.398 21.9184 161.25 21.5622C162.102 21.1875 163.019 21 164 21C164.981 21 165.898 21.1875 166.75 21.5622C167.602 21.9184 168.343 22.415 168.972 23.0522C169.602 23.6894 170.092 24.4298 170.445 25.2731C170.815 26.1165 171 27.0255 171 28C171 28.9745 170.815 29.8929 170.445 30.755C170.092 31.5984 169.602 32.3386 168.972 32.9759C168.343 33.5943 167.602 34.091 166.75 34.4658C165.898 34.8219 164.981 35 164 35C163.019 35 162.102 34.8219 161.25 34.4658C160.398 34.091 159.657 33.5943 159.028 32.9759C158.398 32.3386 157.898 31.5984 157.528 30.755C157.175 29.8929 157 28.9745 157 28Z" fill="#333333"/>
</g>
</g>
</g>
</g>
<defs>
<clipPath id="clip0_452_3515">
<rect width="171" height="56" fill="white"/>
</clipPath>
</defs>
</svg>
