<svg width="24" height="25" viewBox="0 0 24 25" fill="none" xmlns="http://www.w3.org/2000/svg">
<g id="icon/question-circle">
<path id="Vector" d="M12.5 2.5C6.70156 2.5 2 7.20156 2 13C2 18.7984 6.70156 23.5 12.5 23.5C18.2984 23.5 23 18.7984 23 13C23 7.20156 18.2984 2.5 12.5 2.5ZM12.5 21.7188C7.68594 21.7188 3.78125 17.8141 3.78125 13C3.78125 8.18594 7.68594 4.28125 12.5 4.28125C17.3141 4.28125 21.2188 8.18594 21.2188 13C21.2188 17.8141 17.3141 21.7188 12.5 21.7188Z" fill="#8054E3"/>
<path id="Vector_2" d="M14.9431 7.98468C14.2866 7.34839 13.4201 7 12.5011 7C11.5821 7 10.7155 7.35081 10.0591 7.98468C9.37637 8.64516 9 9.53306 9 10.4839V10.6677C9 10.7742 9.07877 10.8613 9.17505 10.8613H10.2254C10.3217 10.8613 10.4004 10.7742 10.4004 10.6677V10.4839C10.4004 9.41694 11.3435 8.54839 12.5011 8.54839C13.6586 8.54839 14.6017 9.41694 14.6017 10.4839C14.6017 11.2363 14.1203 11.9258 13.3742 12.2427C12.9103 12.4387 12.5164 12.7823 12.2341 13.2323C11.9475 13.6919 11.7987 14.2435 11.7987 14.8024V15.3226C11.7987 15.429 11.8775 15.5161 11.9737 15.5161H13.0241C13.1203 15.5161 13.1991 15.429 13.1991 15.3226V14.7734C13.2003 14.5385 13.2654 14.3095 13.386 14.1161C13.5066 13.9228 13.6771 13.7741 13.8753 13.6895C15.1663 13.1403 16 11.8823 16 10.4839C16.0022 9.53306 15.6258 8.64516 14.9431 7.98468ZM11.6258 18.0323C11.6258 18.2889 11.718 18.5351 11.8822 18.7166C12.0463 18.898 12.269 19 12.5011 19C12.7332 19 12.9559 18.898 13.12 18.7166C13.2841 18.5351 13.3764 18.2889 13.3764 18.0323C13.3764 17.7756 13.2841 17.5294 13.12 17.348C12.9559 17.1665 12.7332 17.0645 12.5011 17.0645C12.269 17.0645 12.0463 17.1665 11.8822 17.348C11.718 17.5294 11.6258 17.7756 11.6258 18.0323Z" fill="#8054E3"/>
</g>
</svg>
