<svg width="18" height="21" viewBox="0 0 18 21" fill="none" xmlns="http://www.w3.org/2000/svg">
<g id="Group">
<path id="Vector" d="M3.66667 10.5H10.3333M3.66667 13.0714H13M3.66667 15.6429H7.66667M17 16.9286V7.92857L10.3333 1.5H3.66667C2.95942 1.5 2.28115 1.77092 1.78105 2.25315C1.28095 2.73539 1 3.38944 1 4.07143V16.9286C1 17.6106 1.28095 18.2646 1.78105 18.7468C2.28115 19.2291 2.95942 19.5 3.66667 19.5H14.3333C15.0406 19.5 15.7189 19.2291 16.219 18.7468C16.719 18.2646 17 17.6106 17 16.9286Z" stroke="#343434" stroke-width="1.5" stroke-linecap="round" stroke-linejoin="round"/>
<path id="Vector_2" d="M10 1.5V5.1C10 5.73652 10.295 6.34697 10.8201 6.79706C11.3452 7.24714 12.0574 7.5 12.8 7.5H17" stroke="#343434" stroke-width="1.5" stroke-linecap="round" stroke-linejoin="round"/>
</g>
</svg>
